<svg width="33" height="32" viewBox="0 0 33 32" fill="none"
  xmlns="http://www.w3.org/2000/svg">
  <path d="M25.8333 4H7.16667C5.7 4 4.5 5.2 4.5 6.66667V25.3333C4.5 26.8 5.7 28 7.16667 28H25.8333C27.3 28 28.5 26.8 28.5 25.3333V6.66667C28.5 5.2 27.3 4 25.8333 4ZM23.1667 25.3333H9.83333V25.0133C11.7267 23.4933 14.0467 22.6667 16.5 22.6667C18.9533 22.6667 21.2733 23.4933 23.1667 25.0133V25.3333ZM25.8333 23.8133C23.4333 21.4533 20.14 20 16.5 20C12.86 20 9.56667 21.4533 7.16667 23.8133V6.66667H25.8333V23.8133ZM16.5 17.3333C19.0733 17.3333 21.1667 15.24 21.1667 12.6667C21.1667 10.0933 19.0733 8 16.5 8C13.9267 8 11.8333 10.0933 11.8333 12.6667C11.8333 15.24 13.9267 17.3333 16.5 17.3333ZM16.5 10.6667C17.6067 10.6667 18.5 11.56 18.5 12.6667C18.5 13.7733 17.6067 14.6667 16.5 14.6667C15.3933 14.6667 14.5 13.7733 14.5 12.6667C14.5 11.56 15.3933 10.6667 16.5 10.6667Z" fill="black"/>
</svg>
