<svg width="21" height="20" viewBox="0 0 21 20" fill="none"
  xmlns="http://www.w3.org/2000/svg">
  <path d="M17.5591 4.31425L16.4222 2.9401C16.2014 2.662 15.866 2.49023 15.4816 2.49023H5.66623C5.2818 2.49023 4.94644 2.662 4.71742 2.9401L3.58866 4.31425C3.35145 4.59235 3.2124 4.96043 3.2124 5.35304V15.5773C3.2124 16.4771 3.94855 17.2132 4.84829 17.2132H16.2995C17.1992 17.2132 17.9354 16.4771 17.9354 15.5773V5.35304C17.9354 4.96043 17.7963 4.59235 17.5591 4.31425ZM5.86254 4.12612H15.2853L15.9478 4.91953H5.20819L5.86254 4.12612ZM4.84829 15.5773V6.57995H16.2995V15.5773H4.84829ZM11.7599 8.21584H9.38788V10.6697H7.30212L10.5739 13.9415L13.8457 10.6697H11.7599V8.21584Z" fill="white"/>
</svg>
