<svg width="56" height="56" viewBox="0 0 56 56" fill="none"
  xmlns="http://www.w3.org/2000/svg">
  <rect x="4" y="4" width="48" height="48" rx="24" fill="#FEF0C7"/>
  <rect x="4" y="4" width="48" height="48" rx="24" stroke="#FFFAEB" stroke-width="8"/>
  <path d="M29.73 37C29.5542 37.3031 29.3018 37.5547 28.9982 37.7295C28.6946 37.9044 28.3504 37.9965 28 37.9965C27.6496 37.9965 27.3054 37.9044 27.0018 37.7295C26.6982 37.5547 26.4458 37.3031 26.27 37M34 24C34 22.4087 33.3679 20.8826 32.2426 19.7574C31.1174 18.6321 29.5913 18 28 18C26.4087 18 24.8826 18.6321 23.7574 19.7574C22.6321 20.8826 22 22.4087 22 24C22 31 19 33 19 33H37C37 33 34 31 34 24Z" stroke="#DC6803" stroke-width="2" stroke-linecap="round" stroke-linejoin="round"/>
</svg>
