<svg width="20" height="20" viewBox="0 0 20 20" fill="none"
  xmlns="http://www.w3.org/2000/svg">
  <path d="M2.50004 7.91667H0.833374V17.0833C0.833374 18.0083 1.57504 18.75 2.50004 18.75H16.6667V17.0833H2.50004V7.91667Z" fill="#717680"/>
  <path d="M15 4.58333V2.91667C15 2 14.25 1.25 13.3334 1.25H10C9.08337 1.25 8.33337 2 8.33337 2.91667V4.58333H4.16671V13.75C4.16671 14.6667 4.91671 15.4167 5.83337 15.4167H17.5C18.4167 15.4167 19.1667 14.6667 19.1667 13.75V4.58333H15ZM10 2.91667H13.3334V4.58333H10V2.91667ZM17.5 13.75H5.83337V6.25H17.5V13.75Z" fill="#717680"/>
</svg>
