<svg width="20" height="20" viewBox="0 0 20 20" fill="none"
  xmlns="http://www.w3.org/2000/svg">
  <g clip-path="url(#clip0_2767_21610)">
    <path d="M4.16699 12.5001H3.33366C2.89163 12.5001 2.46771 12.3245 2.15515 12.0119C1.84259 11.6994 1.66699 11.2754 1.66699 10.8334V3.33341C1.66699 2.89139 1.84259 2.46746 2.15515 2.1549C2.46771 1.84234 2.89163 1.66675 3.33366 1.66675H10.8337C11.2757 1.66675 11.6996 1.84234 12.0122 2.1549C12.3247 2.46746 12.5003 2.89139 12.5003 3.33341V4.16675M9.16699 7.50008H16.667C17.5875 7.50008 18.3337 8.24627 18.3337 9.16675V16.6667C18.3337 17.5872 17.5875 18.3334 16.667 18.3334H9.16699C8.24652 18.3334 7.50033 17.5872 7.50033 16.6667V9.16675C7.50033 8.24627 8.24652 7.50008 9.16699 7.50008Z" stroke="#535862" stroke-width="1.66667" stroke-linecap="round" stroke-linejoin="round"/>
  </g>
  <defs>
    <clipPath id="clip0_2767_21610">
      <rect width="20" height="20" fill="white"/>
    </clipPath>
  </defs>
</svg>
