<svg width="20" height="21" viewBox="0 0 20 21" fill="none"
  xmlns="http://www.w3.org/2000/svg">
  <path d="M14.1667 3.16497C14.3856 2.9461 14.6455 2.77248 14.9314 2.65403C15.2174 2.53558 15.5239 2.47461 15.8334 2.47461C16.1429 2.47461 16.4494 2.53558 16.7354 2.65403C17.0214 2.77248 17.2812 2.9461 17.5001 3.16497C17.719 3.38383 17.8926 3.64367 18.011 3.92964C18.1295 4.21561 18.1904 4.5221 18.1904 4.83163C18.1904 5.14116 18.1295 5.44766 18.011 5.73363C17.8926 6.01959 17.719 6.27943 17.5001 6.4983L6.25008 17.7483L1.66675 18.9983L2.91675 14.415L14.1667 3.16497Z" stroke="#535862" stroke-width="1.67" stroke-linecap="round" stroke-linejoin="round"/>
</svg>
