<svg width="20" height="20" viewBox="0 0 20 20" fill="none"
  xmlns="http://www.w3.org/2000/svg">
  <path d="M9.99992 10.8337C10.4602 10.8337 10.8333 10.4606 10.8333 10.0003C10.8333 9.54009 10.4602 9.16699 9.99992 9.16699C9.53968 9.16699 9.16659 9.54009 9.16659 10.0003C9.16659 10.4606 9.53968 10.8337 9.99992 10.8337Z" stroke="#717680" stroke-width="1.66667" stroke-linecap="round" stroke-linejoin="round"/>
  <path d="M15.8333 10.8337C16.2935 10.8337 16.6666 10.4606 16.6666 10.0003C16.6666 9.54009 16.2935 9.16699 15.8333 9.16699C15.373 9.16699 14.9999 9.54009 14.9999 10.0003C14.9999 10.4606 15.373 10.8337 15.8333 10.8337Z" stroke="#717680" stroke-width="1.66667" stroke-linecap="round" stroke-linejoin="round"/>
  <path d="M4.16659 10.8337C4.62682 10.8337 4.99992 10.4606 4.99992 10.0003C4.99992 9.54009 4.62682 9.16699 4.16659 9.16699C3.70635 9.16699 3.33325 9.54009 3.33325 10.0003C3.33325 10.4606 3.70635 10.8337 4.16659 10.8337Z" stroke="#717680" stroke-width="1.66667" stroke-linecap="round" stroke-linejoin="round"/>
</svg>
