<svg width="21" height="21" viewBox="0 0 21 21" fill="none"
  xmlns="http://www.w3.org/2000/svg">
  <path d="M12.1667 2.33008H5.5C5.05798 2.33008 4.63405 2.50567 4.32149 2.81823C4.00893 3.13079 3.83334 3.55472 3.83334 3.99674V17.3301C3.83334 17.7721 4.00893 18.196 4.32149 18.5086C4.63405 18.8212 5.05798 18.9967 5.5 18.9967H15.5C15.942 18.9967 16.366 18.8212 16.6785 18.5086C16.9911 18.196 17.1667 17.7721 17.1667 17.3301V7.33008M12.1667 2.33008L17.1667 7.33008M12.1667 2.33008V7.33008H17.1667M13.8333 11.4967H7.16667M13.8333 14.8301H7.16667M8.83334 8.16341H7.16667" stroke="#717680" stroke-width="1.67" stroke-linecap="round" stroke-linejoin="round"/>
</svg>
