<svg width="25" height="24" viewBox="0 0 25 24" fill="none"
  xmlns="http://www.w3.org/2000/svg">
  <rect x="0.5" width="24" height="24" rx="12" fill="#F5F5F5"/>
  <g clip-path="url(#clip0_2522_13479)">
    <path d="M9.625 16.5H11.625C11.625 17.05 11.175 17.5 10.625 17.5C10.075 17.5 9.625 17.05 9.625 16.5ZM8.625 16H12.625V15H8.625V16ZM14.375 11.25C14.375 13.16 13.045 14.18 12.49 14.5H8.76C8.205 14.18 6.875 13.16 6.875 11.25C6.875 9.18 8.555 7.5 10.625 7.5C12.695 7.5 14.375 9.18 14.375 11.25ZM13.375 11.25C13.375 9.735 12.14 8.5 10.625 8.5C9.11 8.5 7.875 9.735 7.875 11.25C7.875 12.485 8.62 13.195 9.05 13.5H12.2C12.63 13.195 13.375 12.485 13.375 11.25ZM16.81 10.185L16.125 10.5L16.81 10.815L17.125 11.5L17.44 10.815L18.125 10.5L17.44 10.185L17.125 9.5L16.81 10.185ZM15.625 9.5L16.095 8.47L17.125 8L16.095 7.53L15.625 6.5L15.155 7.53L14.125 8L15.155 8.47L15.625 9.5Z" fill="black"/>
  </g>
  <defs>
    <clipPath id="clip0_2522_13479">
      <rect width="12" height="12" fill="white" transform="translate(6.5 6)"/>
    </clipPath>
  </defs>
</svg>
