<svg width="32" height="39" viewBox="0 0 32 39" fill="none"
  xmlns="http://www.w3.org/2000/svg">
  <path d="M8.5188 23.7738V18.6437C8.5188 18.0214 8.00592 17.5169 7.37325 17.5169C6.74059 17.5169 6.22771 18.0214 6.22771 18.6437V23.7738C6.22772 28.7526 10.1027 32.9907 15.1272 32.9907C20.0862 32.9907 24.036 28.9176 24.0974 23.9642L24.0982 23.847V22.3461C24.0982 21.7239 23.5853 21.2194 22.9526 21.2194C22.3298 21.2194 21.8231 21.7082 21.8075 22.3171L21.8071 22.3461V23.847L21.8066 23.9371C21.7597 27.7435 18.7444 30.7373 15.1272 30.7373C11.508 30.7373 8.5188 27.6504 8.5188 23.7738Z" fill="#111111"/>
  <path d="M24.0982 27.6893V12.3942C24.0982 11.772 23.5853 11.2675 22.9526 11.2675C22.32 11.2675 21.8071 11.772 21.8071 12.3942V27.6893C21.8071 32.2717 17.5507 36.7465 12.2991 36.7465C7.03786 36.7465 2.7911 32.3961 2.79108 27.6893V23.9018C2.79108 23.2795 2.27821 22.775 1.64554 22.775C1.01288 22.775 0.5 23.2795 0.5 23.9018V27.6893C0.500019 33.6605 5.79276 39 12.2991 39C18.815 39 24.0982 33.5172 24.0982 27.6893Z" fill="#111111"/>
  <path d="M14.1701 20.9723C14.1701 18.898 15.8797 17.2165 17.9886 17.2165C20.0975 17.2165 21.8071 18.898 21.8071 20.9723C21.8071 23.0465 20.0975 24.728 17.9886 24.728V26.9815C21.3628 26.9815 24.0982 24.2911 24.0982 20.9723C24.0982 17.6534 21.3628 14.963 17.9886 14.963C14.6144 14.963 11.8791 17.6534 11.8791 20.9723C11.8791 24.2911 14.6144 26.9815 17.9886 26.9815V24.728C15.8797 24.728 14.1701 23.0465 14.1701 20.9723Z" fill="#111111"/>
  <path d="M8.90064 11.6579C8.90064 12.4876 8.2168 13.1602 7.37325 13.1602C6.52969 13.1602 5.84586 12.4876 5.84586 11.6579C5.84586 10.8282 6.52969 10.1556 7.37325 10.1556C8.2168 10.1556 8.90064 10.8282 8.90064 11.6579Z" fill="#111111"/>
  <path fill-rule="evenodd" clip-rule="evenodd" d="M22.7303 0.047079C22.867 -0.0157925 23.0373 -0.0155935 23.1741 0.047079C23.192 0.0552811 23.2093 0.0646136 23.2259 0.0749658C23.3179 0.132331 23.3879 0.222636 23.41 0.346025C23.5452 1.10107 23.6911 1.77625 23.8557 2.38213C23.8699 2.43436 23.8832 2.48635 23.8977 2.53756C23.9134 2.59319 23.9307 2.64784 23.9468 2.70227C23.9686 2.77585 23.9893 2.84874 24.0118 2.92016C24.0412 3.01334 24.0715 3.1046 24.1022 3.1942C24.1117 3.22197 24.1209 3.24968 24.1305 3.27711C24.1597 3.36015 24.1901 3.44141 24.2205 3.5214C24.253 3.60682 24.2856 3.69073 24.3195 3.77275C24.3547 3.85764 24.3912 3.94053 24.428 4.02188C24.4388 4.04553 24.4493 4.06916 24.4602 4.09252C24.4688 4.11098 24.4776 4.12928 24.4862 4.14755C24.5249 4.22887 24.5643 4.30848 24.6049 4.38626C24.6223 4.41948 24.6402 4.45221 24.6579 4.4848C24.6655 4.49881 24.6729 4.51291 24.6806 4.52681C24.6944 4.55181 24.7085 4.57655 24.7225 4.60118C24.7362 4.62513 24.7498 4.64897 24.7637 4.67257C24.7789 4.69835 24.7944 4.72379 24.8098 4.74917C24.8208 4.76719 24.8316 4.78525 24.8427 4.80308C24.8563 4.82484 24.8702 4.84632 24.8839 4.86778C24.9 4.89275 24.916 4.91757 24.9323 4.94214C24.9437 4.95925 24.9552 4.97617 24.9667 4.99308C24.9836 5.01787 25.0002 5.04269 25.0174 5.06707C25.0294 5.08413 25.0419 5.10079 25.054 5.11764C25.0724 5.14307 25.0906 5.16851 25.1092 5.19349C25.1239 5.21314 25.1389 5.2325 25.1538 5.25187C25.1674 5.26952 25.1809 5.28724 25.1947 5.30467C25.2134 5.32838 25.2327 5.35164 25.2518 5.37494C25.2657 5.39198 25.2796 5.40907 25.2937 5.42588C25.3089 5.44392 25.3244 5.46164 25.3398 5.47943C25.3581 5.50053 25.3764 5.52151 25.395 5.54226C25.4093 5.55822 25.4237 5.57411 25.4381 5.58986C25.4575 5.61096 25.477 5.63195 25.4967 5.6527C25.5112 5.66794 25.5259 5.68301 25.5406 5.69806C25.5593 5.71729 25.5782 5.7364 25.5973 5.75532C25.6204 5.77823 25.6437 5.8009 25.6672 5.82336C25.677 5.8327 25.6868 5.84199 25.6967 5.85125C25.7217 5.87473 25.7471 5.89779 25.7727 5.92078C25.7865 5.93322 25.8003 5.94567 25.8143 5.95796C25.8367 5.97768 25.8591 5.99735 25.8819 6.01671C25.896 6.02865 25.9101 6.0406 25.9243 6.05241C25.9506 6.07431 25.9775 6.09566 26.0044 6.11711C26.0174 6.12742 26.0303 6.13775 26.0434 6.14797C26.0662 6.16585 26.0893 6.18357 26.1125 6.20114C26.1316 6.21555 26.1507 6.23007 26.17 6.24427C26.1937 6.26169 26.2177 6.27884 26.2418 6.29595C26.2575 6.30706 26.2732 6.31807 26.2891 6.32904C26.3147 6.34681 26.3405 6.36441 26.3666 6.38184C26.3844 6.39377 26.4022 6.40577 26.4203 6.41754C26.4443 6.43325 26.4688 6.44858 26.4932 6.46402C26.5151 6.47785 26.5371 6.49167 26.5594 6.50529C26.5805 6.51826 26.6018 6.53118 26.6233 6.54396C26.645 6.55691 26.667 6.5695 26.689 6.58226C26.7158 6.59776 26.7427 6.61314 26.7699 6.62836C26.7905 6.63986 26.8111 6.65123 26.8319 6.66257C26.8551 6.6752 26.8784 6.68769 26.9019 6.70013C26.9269 6.71341 26.952 6.72684 26.9775 6.73991C27.0032 6.75315 27.0292 6.7663 27.0553 6.77932C27.0766 6.78993 27.0981 6.80046 27.1196 6.81093C27.1481 6.82478 27.1768 6.83859 27.2058 6.8522C27.2293 6.86325 27.2531 6.87403 27.2769 6.88492C27.3042 6.8974 27.3316 6.90983 27.3593 6.9221C27.3785 6.93061 27.3978 6.93898 27.4171 6.94739C27.4546 6.96365 27.4923 6.97981 27.5305 6.99573C27.5478 7.00294 27.5652 7.01014 27.5827 7.01729C27.6141 7.03014 27.6457 7.04296 27.6776 7.05559C27.7085 7.06783 27.7396 7.08 27.771 7.09203C27.7932 7.10058 27.8157 7.10886 27.8382 7.11731C27.8678 7.1284 27.8975 7.13949 27.9275 7.1504C27.9587 7.16179 27.9902 7.17303 28.022 7.18424C28.0505 7.19433 28.0792 7.20441 28.1082 7.21436C28.1332 7.22297 28.1584 7.2315 28.1838 7.24001C28.2173 7.25127 28.2511 7.2624 28.2851 7.27348C28.3205 7.28501 28.3561 7.29672 28.3921 7.30806C28.4042 7.31189 28.4165 7.3154 28.4287 7.31921C28.5066 7.34351 28.5861 7.3664 28.6665 7.38986C28.7271 7.40752 28.7882 7.42545 28.8502 7.44266C28.9164 7.461 28.9835 7.47872 29.0513 7.49657C29.116 7.51359 29.1813 7.53092 29.2475 7.54751C29.3209 7.56588 29.3953 7.58354 29.4706 7.60143C29.5348 7.61669 29.5996 7.6326 29.6653 7.64753C29.7462 7.66592 29.8283 7.68353 29.9114 7.70145C29.9778 7.71577 30.045 7.73016 30.1129 7.74421C30.1872 7.75958 30.2624 7.77451 30.3385 7.78957C30.4192 7.80554 30.5008 7.82188 30.5835 7.83753C30.6638 7.85273 30.7451 7.8676 30.8273 7.88253C30.8786 7.89183 30.9303 7.90195 30.9823 7.91116L31.1479 7.94016L31.1906 7.94945C31.5756 8.05513 31.6013 8.63298 31.2677 8.80167C31.232 8.81977 31.192 8.83312 31.1479 8.84072C31.0923 8.8503 31.0371 8.86003 30.9823 8.86972C30.9303 8.87892 30.8786 8.88867 30.8273 8.89798C30.7433 8.91323 30.6602 8.92854 30.5782 8.94408C30.5105 8.95691 30.4435 8.97008 30.3771 8.98312C30.2795 9.0023 30.1834 9.02145 30.0887 9.04113C30.0378 9.0517 29.9875 9.06275 29.9375 9.07348C29.844 9.09352 29.7518 9.11345 29.6611 9.13408C29.607 9.14639 29.5535 9.15911 29.5004 9.17164C29.4076 9.19354 29.3162 9.21556 29.2264 9.2382C29.1846 9.24873 29.1432 9.25985 29.102 9.27055C29.0116 9.29403 28.9225 9.31723 28.8351 9.34156C28.7791 9.35715 28.7239 9.37357 28.6692 9.38953C28.5952 9.41107 28.5221 9.43197 28.4503 9.45423C28.4198 9.46367 28.3896 9.47328 28.3595 9.48286C28.335 9.49067 28.3105 9.49837 28.2862 9.50628C28.2603 9.5147 28.2347 9.52341 28.2091 9.53194C28.1655 9.54647 28.1222 9.56097 28.0794 9.57581C28.0641 9.58112 28.0489 9.58645 28.0337 9.5918C27.994 9.60577 27.9547 9.61994 27.9157 9.63419C27.8984 9.64052 27.8811 9.64676 27.864 9.65315C27.8248 9.66772 27.786 9.68252 27.7475 9.6974C27.7269 9.70538 27.7063 9.71349 27.6859 9.72157C27.6512 9.73527 27.6168 9.74924 27.5827 9.76321C27.5632 9.7712 27.5438 9.77931 27.5245 9.78738C27.4935 9.80032 27.4627 9.81325 27.4322 9.82642C27.4097 9.83616 27.3872 9.84593 27.365 9.85579C27.3307 9.87097 27.2966 9.88604 27.2629 9.90153C27.2469 9.90887 27.2311 9.91642 27.2153 9.92384C27.1806 9.94008 27.1461 9.95633 27.112 9.97292C27.0987 9.9794 27.0856 9.98609 27.0724 9.99263C27.0335 10.0119 26.9951 10.0313 26.9571 10.051C26.9477 10.0558 26.9384 10.0606 26.9291 10.0655C26.8461 10.109 26.7651 10.1535 26.686 10.1994C26.6673 10.2102 26.6489 10.2215 26.6304 10.2325C26.603 10.2487 26.5757 10.2649 26.5488 10.2815C26.5329 10.2913 26.5173 10.3014 26.5015 10.3113C26.4764 10.3271 26.4514 10.3431 26.4267 10.3592C26.4043 10.3738 26.3819 10.3883 26.3598 10.4031C26.34 10.4164 26.3203 10.4295 26.3008 10.4429C26.2756 10.4603 26.2507 10.478 26.2259 10.4957C26.2081 10.5085 26.1903 10.5214 26.1726 10.5344C26.1524 10.5492 26.1325 10.5643 26.1125 10.5794C26.0893 10.5969 26.0662 10.6147 26.0434 10.6325C26.0303 10.6427 26.0174 10.6531 26.0044 10.6634C25.9765 10.6857 25.9486 10.7079 25.9213 10.7307C25.912 10.7384 25.9029 10.7463 25.8937 10.7541C25.8641 10.779 25.8348 10.8041 25.806 10.8296C25.7977 10.8369 25.7896 10.8445 25.7814 10.8519C25.7529 10.8775 25.7246 10.9031 25.6967 10.9293C25.6868 10.9385 25.677 10.9478 25.6672 10.9571C25.6431 10.9801 25.619 11.0032 25.5954 11.0267C25.581 11.041 25.5669 11.0557 25.5527 11.0702C25.5308 11.0924 25.5091 11.1148 25.4876 11.1375C25.4757 11.1501 25.4639 11.1627 25.4521 11.1754C25.4328 11.1962 25.4136 11.2171 25.3947 11.2382C25.3745 11.2608 25.3547 11.2837 25.3349 11.3067C25.3216 11.3221 25.308 11.3375 25.2949 11.3531C25.2803 11.3704 25.2661 11.388 25.2518 11.4056C25.2327 11.4289 25.2134 11.4521 25.1947 11.4758C25.1809 11.4933 25.1674 11.511 25.1538 11.5286C25.1387 11.5484 25.1234 11.5681 25.1085 11.5881C25.0932 11.6085 25.0781 11.6291 25.0631 11.6498C25.0461 11.6732 25.0291 11.6967 25.0125 11.7205C24.9992 11.7394 24.9866 11.7586 24.9735 11.7778C24.9598 11.7979 24.9459 11.818 24.9323 11.8384C24.9138 11.8662 24.8956 11.8944 24.8775 11.9228C24.8675 11.9385 24.8572 11.9541 24.8473 11.97C24.8359 11.9882 24.8249 12.0066 24.8136 12.025C24.7682 12.0995 24.7237 12.1756 24.6806 12.2537C24.6697 12.2733 24.6591 12.293 24.6484 12.3128C24.6353 12.3372 24.6221 12.3617 24.6091 12.3864C24.5671 12.4667 24.5262 12.5489 24.4862 12.6329C24.4776 12.6512 24.4688 12.6695 24.4602 12.688C24.4493 12.7113 24.4388 12.735 24.428 12.7586C24.3454 12.9409 24.2668 13.1317 24.1925 13.332C24.1601 13.4194 24.1286 13.5087 24.0976 13.5997C24.0681 13.6863 24.039 13.7745 24.0107 13.8644C23.9914 13.9256 23.9735 13.9879 23.9547 14.0507C23.9358 14.1141 23.9161 14.1779 23.8977 14.2429C23.881 14.3019 23.8656 14.3618 23.8493 14.4222C23.6873 15.022 23.5435 15.6895 23.41 16.4348C23.3274 16.896 22.5778 16.896 22.4952 16.4348C21.7564 12.3109 20.7325 10.5615 17.7547 9.55127C16.9209 9.26842 15.9339 9.0436 14.7572 8.84072C14.6253 8.81792 14.5303 8.7431 14.4726 8.64551C14.3379 8.41784 14.4053 8.06614 14.6748 7.96247C14.7005 7.95261 14.728 7.94522 14.7572 7.94016L15.0067 7.89628C15.0497 7.88859 15.0921 7.87988 15.1345 7.87211C15.2058 7.85905 15.2764 7.84598 15.3462 7.8327C15.4378 7.81529 15.5281 7.79771 15.6173 7.7799C15.6828 7.7668 15.7477 7.75346 15.812 7.74012C15.892 7.7235 15.971 7.70656 16.049 7.68955C16.1233 7.67333 16.1968 7.65707 16.2694 7.64047C16.3393 7.62448 16.4083 7.60813 16.4765 7.59176C16.5431 7.5758 16.6089 7.55977 16.6739 7.54342C16.7528 7.52357 16.8304 7.5029 16.9071 7.48244C16.9621 7.46778 17.0166 7.45319 17.0704 7.4382C17.1428 7.41804 17.214 7.39725 17.2844 7.37647C17.3587 7.35452 17.4323 7.33335 17.5044 7.31066C17.5248 7.30425 17.5451 7.2978 17.5653 7.29133C17.5831 7.2856 17.6008 7.27962 17.6186 7.27385C17.6596 7.2605 17.7004 7.24731 17.7407 7.23369C17.7573 7.22809 17.7737 7.22224 17.7902 7.21659C17.8341 7.20154 17.8776 7.18661 17.9206 7.17123C17.9351 7.16603 17.9496 7.16085 17.9641 7.15561C18.0089 7.13935 18.0532 7.1228 18.0971 7.10616C18.1082 7.10199 18.1191 7.09771 18.13 7.09352C18.1689 7.07861 18.2075 7.06374 18.2457 7.04852C18.2815 7.03427 18.3168 7.01956 18.3519 7.00502C18.3683 6.99824 18.3848 6.99179 18.4011 6.98494C18.4373 6.96972 18.4729 6.954 18.5084 6.93846C18.5277 6.93005 18.5469 6.92169 18.5659 6.91318C18.5873 6.9036 18.6086 6.89388 18.6298 6.88418C18.6642 6.86844 18.6985 6.85302 18.7322 6.83696C18.7489 6.82904 18.7653 6.82078 18.7818 6.81279C18.8124 6.79793 18.8428 6.78294 18.8729 6.7678C18.8955 6.75643 18.9178 6.74475 18.9402 6.73322C18.9687 6.71846 18.9971 6.70363 19.0252 6.6886C19.0371 6.68223 19.0489 6.67568 19.0607 6.66926C19.0996 6.64821 19.1381 6.62728 19.176 6.60568C19.1823 6.60214 19.1884 6.59845 19.1946 6.5949C19.2324 6.57319 19.2699 6.55136 19.3068 6.52909C19.3219 6.52 19.3369 6.51076 19.3518 6.50157C19.3761 6.48667 19.4002 6.47173 19.424 6.45658C19.455 6.43691 19.4855 6.41682 19.5159 6.39672C19.5253 6.39047 19.5349 6.38441 19.5442 6.37813C19.5736 6.35846 19.6024 6.33835 19.6312 6.31826C19.6476 6.30677 19.6641 6.29532 19.6803 6.28368C19.7022 6.26806 19.7239 6.25233 19.7454 6.23646C19.7685 6.21939 19.7914 6.20215 19.8142 6.18478C19.8281 6.17415 19.842 6.16354 19.8557 6.1528C19.8808 6.13327 19.9056 6.11359 19.9302 6.09368C19.9467 6.0803 19.963 6.0667 19.9794 6.05315C20.0028 6.03373 20.026 6.01418 20.0489 5.9944C20.0618 5.98329 20.0747 5.97217 20.0875 5.96094C20.1102 5.94093 20.1328 5.92072 20.1551 5.90033C20.176 5.88137 20.1967 5.86236 20.2171 5.84307C20.2298 5.83118 20.2421 5.81902 20.2546 5.807C20.2749 5.78738 20.295 5.76748 20.3151 5.74751C20.3362 5.72643 20.3574 5.7054 20.3782 5.68393C20.388 5.67383 20.3976 5.66362 20.4073 5.65344C20.4324 5.62707 20.4572 5.60045 20.4818 5.5735C20.4916 5.56265 20.5015 5.55173 20.5113 5.54078C20.5339 5.51547 20.5564 5.49 20.5785 5.46418C20.5893 5.45162 20.6 5.43894 20.6107 5.42626C20.6304 5.40281 20.6499 5.37911 20.6693 5.35524C20.6861 5.33451 20.703 5.31382 20.7195 5.29277C20.7318 5.27718 20.7437 5.26132 20.7558 5.24555C20.7744 5.22143 20.7929 5.19722 20.811 5.17267C20.823 5.15646 20.8347 5.13999 20.8466 5.12359C20.8645 5.0988 20.8826 5.07408 20.9002 5.04885C20.9134 5.02996 20.9262 5.01073 20.9392 4.99159C20.9529 4.9714 20.9665 4.95108 20.98 4.93061C20.9959 4.90652 21.0116 4.88222 21.0273 4.85774C21.0389 4.83958 21.0506 4.82145 21.062 4.80308C21.0784 4.77682 21.0944 4.75021 21.1104 4.72351C21.1213 4.70543 21.1326 4.68751 21.1433 4.66922C21.1628 4.63614 21.1818 4.6026 21.2008 4.56883C21.2066 4.55846 21.2124 4.54803 21.2182 4.5376C21.2326 4.51167 21.2467 4.48547 21.2609 4.45914C21.2772 4.42876 21.2936 4.39823 21.3097 4.3673C21.3162 4.35473 21.3225 4.34203 21.3289 4.32938C21.3446 4.29862 21.3604 4.26772 21.3758 4.23642C21.3883 4.21112 21.4002 4.18548 21.4125 4.15982C21.4254 4.1327 21.4387 4.10555 21.4514 4.07802C21.4625 4.05403 21.4734 4.02981 21.4843 4.00552C21.4966 3.97825 21.5093 3.951 21.5214 3.92334C21.5303 3.90295 21.5386 3.88223 21.5474 3.86162C21.5838 3.77663 21.6198 3.69005 21.6544 3.60134C21.6898 3.51078 21.7239 3.41814 21.7576 3.32359C21.7636 3.30692 21.7695 3.29019 21.7754 3.2734C21.7868 3.24083 21.7978 3.20791 21.809 3.17486C21.8392 3.0861 21.8689 2.99569 21.8979 2.90343C21.9077 2.87197 21.9169 2.84012 21.9266 2.80824C22.029 2.47266 22.1248 2.11437 22.2139 1.7307C22.2578 1.5416 22.2995 1.34622 22.3409 1.1447C22.3936 0.888775 22.4456 0.622861 22.4952 0.346025C22.5172 0.222768 22.587 0.13234 22.6789 0.0749658C22.6954 0.064665 22.7125 0.0552562 22.7303 0.047079ZM22.9526 6.07992C22.6541 6.54393 22.3095 6.97503 21.9073 7.36978C21.5076 7.76214 21.0714 8.09878 20.602 8.39044C21.0714 8.6821 21.5076 9.01872 21.9073 9.41109C22.3095 9.80586 22.6541 10.2369 22.9526 10.701C23.251 10.2369 23.5957 9.80586 23.9978 9.41109C24.3976 9.01871 24.8341 8.68211 25.3035 8.39044C24.8341 8.09876 24.3976 7.76217 23.9978 7.36978C23.5957 6.97502 23.251 6.54394 22.9526 6.07992Z" fill="#111111"/>
</svg>
