<svg width="129" height="32" viewBox="0 0 129 32" fill="none"
  xmlns="http://www.w3.org/2000/svg">
  <path d="M5.16465 21.3289V18.0247C5.16465 17.6239 4.83432 17.299 4.42684 17.299C4.01936 17.299 3.68904 17.6239 3.68904 18.0247V21.3289C3.68904 24.5355 6.18478 27.2652 9.42092 27.2652C12.6149 27.2652 15.1588 24.6418 15.1983 21.4515L15.1988 21.376V20.4093C15.1988 20.0085 14.8685 19.6836 14.461 19.6836C14.0599 19.6836 13.7335 19.9985 13.7235 20.3906L13.7232 20.4093V21.376L13.7229 21.434C13.6927 23.8856 11.7506 25.8138 9.42092 25.8138C7.08993 25.8138 5.16465 23.8256 5.16465 21.3289Z" fill="#111111"/>
  <path d="M15.1988 23.8507V13.9996C15.1988 13.5988 14.8685 13.2739 14.461 13.2739C14.0535 13.2739 13.7232 13.5988 13.7232 13.9996V23.8507C13.7232 26.802 10.9818 29.6842 7.59941 29.6842C4.21082 29.6842 1.47563 26.8822 1.47561 23.8507V21.4113C1.47561 21.0105 1.14529 20.6856 0.737807 20.6856C0.330327 20.6856 0 21.0105 0 21.4113V23.8507C1.22161e-05 27.6966 3.4089 31.1356 7.59941 31.1356C11.7961 31.1356 15.1988 27.6043 15.1988 23.8507Z" fill="#111111"/>
  <path d="M8.8045 19.5245C8.8045 18.1885 9.90559 17.1055 11.2639 17.1055C12.6221 17.1055 13.7232 18.1885 13.7232 19.5245C13.7232 20.8604 12.6221 21.9434 11.2639 21.9434V23.3948C13.4371 23.3948 15.1988 21.662 15.1988 19.5245C15.1988 17.3869 13.4371 15.6541 11.2639 15.6541C9.09063 15.6541 7.32888 17.3869 7.32888 19.5245C7.32888 21.662 9.09063 23.3948 11.2639 23.3948V21.9434C9.90559 21.9434 8.8045 20.8604 8.8045 19.5245Z" fill="#111111"/>
  <path d="M5.41058 13.5254C5.41058 14.0598 4.97014 14.493 4.42684 14.493C3.88353 14.493 3.4431 14.0598 3.4431 13.5254C3.4431 12.991 3.88353 12.5578 4.42684 12.5578C4.97014 12.5578 5.41058 12.991 5.41058 13.5254Z" fill="#111111"/>
  <path fill-rule="evenodd" clip-rule="evenodd" d="M14.3178 6.04723C14.4059 6.00674 14.5155 6.00686 14.6037 6.04723C14.6152 6.05251 14.6263 6.05852 14.637 6.06519C14.6963 6.10214 14.7414 6.1603 14.7556 6.23977C14.8427 6.72607 14.9366 7.16094 15.0427 7.55116C15.0518 7.5848 15.0603 7.61829 15.0697 7.65126C15.0798 7.6871 15.0909 7.72229 15.1013 7.75735C15.1154 7.80474 15.1287 7.85169 15.1432 7.89769C15.1621 7.95771 15.1817 8.01648 15.2014 8.07419C15.2075 8.09207 15.2135 8.10992 15.2197 8.12759C15.2384 8.18107 15.258 8.23341 15.2776 8.28493C15.2985 8.33994 15.3195 8.39399 15.3414 8.44682C15.364 8.50149 15.3875 8.55487 15.4113 8.60727C15.4182 8.6225 15.425 8.63772 15.432 8.65277C15.4375 8.66466 15.4432 8.67644 15.4488 8.68821C15.4737 8.74059 15.4991 8.79186 15.5252 8.84196C15.5364 8.86335 15.5479 8.88443 15.5593 8.90542C15.5642 8.91445 15.569 8.92353 15.5739 8.93248C15.5828 8.94858 15.5919 8.96451 15.6009 8.98038C15.6097 8.9958 15.6185 9.01116 15.6275 9.02636C15.6373 9.04296 15.6472 9.05935 15.6572 9.07569C15.6643 9.0873 15.6712 9.09893 15.6784 9.11042C15.6871 9.12443 15.696 9.13826 15.7049 9.15208C15.7152 9.16817 15.7256 9.18416 15.7361 9.19998C15.7434 9.211 15.7508 9.2219 15.7582 9.23279C15.7691 9.24876 15.7798 9.26474 15.7909 9.28045C15.7986 9.29143 15.8066 9.30216 15.8145 9.31302C15.8263 9.32939 15.838 9.34578 15.85 9.36187C15.8595 9.37452 15.8691 9.38699 15.8788 9.39947C15.8875 9.41084 15.8962 9.42225 15.905 9.43347C15.9171 9.44875 15.9295 9.46373 15.9418 9.47874C15.9508 9.48971 15.9597 9.50071 15.9688 9.51154C15.9786 9.52316 15.9886 9.53457 15.9985 9.54603C16.0103 9.55962 16.0221 9.57313 16.0341 9.5865C16.0433 9.59678 16.0525 9.60701 16.0618 9.61715C16.0743 9.63075 16.0869 9.64427 16.0996 9.65763C16.1089 9.66744 16.1184 9.67715 16.1278 9.68684C16.1399 9.69923 16.1521 9.71154 16.1644 9.72372C16.1792 9.73848 16.1942 9.75308 16.2094 9.76755C16.2157 9.77356 16.222 9.77954 16.2284 9.78551C16.2445 9.80063 16.2609 9.81548 16.2773 9.83029C16.2862 9.8383 16.2951 9.84632 16.3041 9.85424C16.3185 9.86694 16.333 9.8796 16.3477 9.89208C16.3567 9.89977 16.3658 9.90746 16.375 9.91507C16.3919 9.92917 16.4093 9.94292 16.4266 9.95674C16.4349 9.96338 16.4432 9.97004 16.4517 9.97661C16.4664 9.98813 16.4812 9.99954 16.4962 10.0109C16.5085 10.0201 16.5208 10.0295 16.5332 10.0386C16.5485 10.0499 16.5639 10.0609 16.5795 10.0719C16.5896 10.0791 16.5997 10.0862 16.6099 10.0932C16.6264 10.1047 16.643 10.116 16.6598 10.1272C16.6713 10.1349 16.6828 10.1427 16.6944 10.1502C16.7099 10.1604 16.7256 10.1702 16.7414 10.1802C16.7555 10.1891 16.7697 10.198 16.784 10.2068C16.7976 10.2151 16.8113 10.2234 16.8251 10.2317C16.8391 10.24 16.8533 10.2481 16.8675 10.2563C16.8847 10.2663 16.9021 10.2762 16.9196 10.286C16.9328 10.2934 16.9462 10.3008 16.9595 10.3081C16.9745 10.3162 16.9895 10.3242 17.0046 10.3322C17.0207 10.3408 17.0369 10.3494 17.0533 10.3579C17.0699 10.3664 17.0866 10.3749 17.1034 10.3833C17.1172 10.3901 17.131 10.3969 17.1448 10.4036C17.1632 10.4125 17.1817 10.4214 17.2003 10.4302C17.2155 10.4373 17.2308 10.4442 17.2461 10.4513C17.2637 10.4593 17.2814 10.4673 17.2992 10.4752C17.3115 10.4807 17.324 10.4861 17.3365 10.4915C17.3606 10.502 17.3849 10.5124 17.4095 10.5226C17.4206 10.5273 17.4318 10.5319 17.4431 10.5365C17.4633 10.5448 17.4837 10.5531 17.5042 10.5612C17.5241 10.5691 17.5441 10.5769 17.5643 10.5847C17.5787 10.5902 17.5932 10.5955 17.6077 10.6009C17.6267 10.6081 17.6459 10.6152 17.6651 10.6223C17.6853 10.6296 17.7056 10.6368 17.726 10.644C17.7444 10.6505 17.7629 10.657 17.7815 10.6634C17.7977 10.669 17.8139 10.6745 17.8302 10.68C17.8518 10.6872 17.8736 10.6944 17.8955 10.7015C17.9183 10.7089 17.9412 10.7165 17.9644 10.7238C17.9722 10.7263 17.9801 10.7285 17.988 10.731C18.0382 10.7466 18.0893 10.7614 18.1411 10.7765C18.1801 10.7878 18.2195 10.7994 18.2595 10.8105C18.3021 10.8223 18.3453 10.8337 18.389 10.8452C18.4307 10.8562 18.4727 10.8673 18.5154 10.878C18.5626 10.8898 18.6105 10.9012 18.659 10.9127C18.7004 10.9226 18.7421 10.9328 18.7844 10.9424C18.8365 10.9543 18.8894 10.9656 18.9429 10.9772C18.9857 10.9864 19.029 10.9957 19.0727 11.0047C19.1206 11.0146 19.169 11.0242 19.218 11.0339C19.27 11.0442 19.3226 11.0547 19.3758 11.0648C19.4275 11.0746 19.4799 11.0842 19.5329 11.0938C19.5659 11.0998 19.5992 11.1063 19.6327 11.1122L19.7393 11.1309L19.7668 11.1369C20.0148 11.205 20.0313 11.5771 19.8165 11.6858C19.7935 11.6974 19.7677 11.706 19.7393 11.7109C19.7035 11.7171 19.668 11.7234 19.6327 11.7296C19.5992 11.7355 19.5659 11.7418 19.5329 11.7478C19.4787 11.7576 19.4252 11.7675 19.3724 11.7775C19.3288 11.7858 19.2856 11.7942 19.2429 11.8026C19.18 11.815 19.1181 11.8273 19.0571 11.84C19.0244 11.8468 18.9919 11.8539 18.9597 11.8608C18.8995 11.8737 18.8401 11.8866 18.7817 11.8999C18.7469 11.9078 18.7125 11.916 18.6783 11.9241C18.6185 11.9382 18.5596 11.9524 18.5017 11.9669C18.4748 11.9737 18.4482 11.9809 18.4216 11.9878C18.3634 12.0029 18.306 12.0178 18.2497 12.0335C18.2137 12.0435 18.1781 12.0541 18.1428 12.0644C18.0952 12.0783 18.0481 12.0917 18.0019 12.1061C17.9823 12.1121 17.9628 12.1183 17.9434 12.1245C17.9276 12.1295 17.9119 12.1345 17.8962 12.1396C17.8795 12.145 17.863 12.1506 17.8465 12.1561C17.8184 12.1655 17.7906 12.1748 17.763 12.1844C17.7532 12.1878 17.7433 12.1912 17.7336 12.1947C17.708 12.2037 17.6827 12.2128 17.6576 12.222C17.6464 12.2261 17.6353 12.2301 17.6242 12.2342C17.599 12.2436 17.574 12.2531 17.5492 12.2627C17.5359 12.2678 17.5227 12.2731 17.5096 12.2783C17.4872 12.2871 17.4651 12.2961 17.4431 12.3051C17.4305 12.3102 17.418 12.3154 17.4056 12.3206C17.3857 12.329 17.3658 12.3373 17.3462 12.3458C17.3317 12.3521 17.3172 12.3584 17.3029 12.3647C17.2808 12.3745 17.2588 12.3842 17.2371 12.3942C17.2268 12.3989 17.2166 12.4038 17.2064 12.4085C17.1841 12.419 17.1619 12.4295 17.14 12.4401C17.1314 12.4443 17.1229 12.4486 17.1144 12.4528C17.0894 12.4652 17.0646 12.4777 17.0401 12.4904C17.0341 12.4935 17.0281 12.4966 17.0221 12.4998C16.9687 12.5278 16.9165 12.5565 16.8656 12.586C16.8535 12.593 16.8417 12.6002 16.8298 12.6073C16.8121 12.6178 16.7945 12.6282 16.7772 12.6389C16.767 12.6452 16.7569 12.6517 16.7467 12.6581C16.7305 12.6683 16.7145 12.6786 16.6985 12.689C16.6841 12.6984 16.6697 12.7077 16.6554 12.7172C16.6427 12.7257 16.63 12.7342 16.6175 12.7428C16.6012 12.754 16.5852 12.7654 16.5693 12.7769C16.5577 12.7851 16.5463 12.7934 16.5349 12.8018C16.5219 12.8113 16.509 12.821 16.4962 12.8307C16.4812 12.842 16.4664 12.8535 16.4517 12.865C16.4432 12.8716 16.4349 12.8782 16.4266 12.8849C16.4086 12.8992 16.3906 12.9135 16.373 12.9282C16.367 12.9332 16.3612 12.9383 16.3552 12.9433C16.3362 12.9593 16.3173 12.9755 16.2987 12.9919C16.2934 12.9966 16.2882 13.0015 16.2829 13.0063C16.2646 13.0227 16.2463 13.0392 16.2284 13.0561C16.222 13.062 16.2157 13.068 16.2094 13.074C16.1939 13.0889 16.1784 13.1037 16.1631 13.1188C16.1538 13.1281 16.1448 13.1375 16.1356 13.1468C16.1215 13.1612 16.1076 13.1756 16.0937 13.1902C16.0861 13.1983 16.0784 13.2064 16.0709 13.2146C16.0584 13.228 16.046 13.2415 16.0338 13.2551C16.0209 13.2696 16.0081 13.2844 15.9954 13.2992C15.9868 13.3091 15.9781 13.319 15.9696 13.3291C15.9602 13.3402 15.9511 13.3516 15.9418 13.3629C15.9295 13.3779 15.9171 13.3928 15.905 13.4081C15.8962 13.4193 15.8875 13.4308 15.8788 13.4421C15.869 13.4548 15.8592 13.4676 15.8495 13.4804C15.8397 13.4936 15.83 13.5069 15.8203 13.5202C15.8094 13.5353 15.7984 13.5504 15.7877 13.5657C15.7792 13.5778 15.771 13.5903 15.7626 13.6026C15.7538 13.6155 15.7448 13.6285 15.7361 13.6416C15.7242 13.6596 15.7124 13.6777 15.7008 13.696C15.6943 13.7061 15.6877 13.7162 15.6813 13.7264C15.674 13.7381 15.6669 13.75 15.6596 13.7618C15.6303 13.8098 15.6017 13.8588 15.5739 13.9091C15.5669 13.9217 15.5601 13.9344 15.5532 13.9472C15.5447 13.9629 15.5362 13.9787 15.5279 13.9946C15.5008 14.0463 15.4745 14.0992 15.4488 14.1534C15.4432 14.1652 15.4375 14.1769 15.432 14.1888C15.425 14.2039 15.4182 14.2191 15.4113 14.2343C15.3581 14.3517 15.3074 14.4746 15.2596 14.6036C15.2387 14.6599 15.2184 14.7174 15.1985 14.776C15.1795 14.8318 15.1607 14.8886 15.1425 14.9465C15.1301 14.986 15.1185 15.0261 15.1064 15.0665C15.0943 15.1073 15.0815 15.1485 15.0697 15.1903C15.0589 15.2283 15.049 15.2669 15.0385 15.3058C14.9342 15.6921 14.8416 16.122 14.7556 16.6021C14.7024 16.8991 14.2196 16.8991 14.1664 16.6021C13.6906 13.946 13.0311 12.8193 11.1132 12.1686C10.5762 11.9864 9.94048 11.8416 9.18263 11.7109C9.09762 11.6962 9.03648 11.6481 8.99929 11.5852C8.91253 11.4386 8.95596 11.212 9.12955 11.1453C9.14606 11.1389 9.16378 11.1342 9.18263 11.1309L9.34333 11.1026C9.37097 11.0977 9.39832 11.0921 9.42562 11.0871C9.47154 11.0787 9.51699 11.0702 9.56197 11.0617C9.62096 11.0505 9.67914 11.0392 9.73654 11.0277C9.77877 11.0193 9.82055 11.0107 9.86194 11.0021C9.91348 10.9914 9.96435 10.9805 10.0146 10.9695C10.0625 10.9591 10.1098 10.9486 10.1565 10.9379C10.2016 10.9276 10.246 10.9171 10.29 10.9065C10.3328 10.8962 10.3752 10.8859 10.4171 10.8754C10.4679 10.8626 10.5179 10.8493 10.5673 10.8361C10.6027 10.8267 10.6378 10.8173 10.6725 10.8076C10.7191 10.7946 10.765 10.7812 10.8103 10.7679C10.8582 10.7537 10.9055 10.7401 10.952 10.7255C10.9651 10.7213 10.9782 10.7172 10.9912 10.713C11.0027 10.7093 11.0141 10.7055 11.0255 10.7018C11.0519 10.6932 11.0782 10.6847 11.1042 10.6759C11.1148 10.6723 11.1254 10.6685 11.1361 10.6649C11.1643 10.6552 11.1923 10.6456 11.2201 10.6357C11.2294 10.6323 11.2388 10.629 11.2481 10.6256C11.2769 10.6151 11.3055 10.6045 11.3338 10.5938C11.3408 10.5911 11.3479 10.5883 11.3549 10.5856C11.38 10.576 11.4049 10.5664 11.4294 10.5566C11.4525 10.5475 11.4752 10.538 11.4979 10.5286C11.5084 10.5242 11.519 10.5201 11.5295 10.5157C11.5528 10.5059 11.5758 10.4958 11.5987 10.4857C11.611 10.4803 11.6234 10.4749 11.6357 10.4695C11.6495 10.4633 11.6632 10.457 11.6768 10.4508C11.699 10.4406 11.7211 10.4307 11.7428 10.4204C11.7535 10.4153 11.7641 10.41 11.7747 10.4048C11.7944 10.3952 11.814 10.3856 11.8334 10.3758C11.8479 10.3685 11.8623 10.361 11.8767 10.3536C11.8951 10.344 11.9134 10.3345 11.9315 10.3248C11.9392 10.3207 11.9468 10.3165 11.9544 10.3124C11.9794 10.2988 12.0042 10.2853 12.0286 10.2714C12.0326 10.2691 12.0366 10.2668 12.0406 10.2645C12.0649 10.2505 12.0891 10.2364 12.1129 10.2221C12.1226 10.2162 12.1322 10.2103 12.1419 10.2044C12.1575 10.1948 12.173 10.1851 12.1884 10.1754C12.2083 10.1627 12.228 10.1498 12.2475 10.1368C12.2536 10.1328 12.2598 10.1289 12.2658 10.1249C12.2847 10.1122 12.3033 10.0992 12.3218 10.0863C12.3324 10.0789 12.343 10.0715 12.3534 10.064C12.3675 10.054 12.3815 10.0438 12.3953 10.0336C12.4102 10.0226 12.425 10.0115 12.4396 10.0003C12.4486 9.99348 12.4575 9.98664 12.4664 9.97973C12.4825 9.96715 12.4985 9.95447 12.5144 9.94165C12.525 9.93303 12.5355 9.92427 12.546 9.91555C12.5611 9.90304 12.576 9.89045 12.5908 9.87771C12.5991 9.87055 12.6074 9.86339 12.6157 9.85616C12.6303 9.84327 12.6448 9.83025 12.6592 9.81712C12.6726 9.8049 12.686 9.79267 12.6992 9.78024C12.7073 9.77258 12.7152 9.76475 12.7233 9.75701C12.7364 9.74437 12.7493 9.73155 12.7622 9.71869C12.7759 9.70511 12.7895 9.69157 12.8029 9.67774C12.8092 9.67124 12.8154 9.66466 12.8216 9.65811C12.8378 9.64112 12.8538 9.62398 12.8696 9.60662C12.876 9.59963 12.8823 9.59259 12.8886 9.58554C12.9032 9.56925 12.9177 9.55284 12.9319 9.53621C12.9389 9.52812 12.9458 9.51995 12.9526 9.51178C12.9654 9.49668 12.9779 9.48142 12.9904 9.46604C13.0012 9.4527 13.0121 9.43937 13.0228 9.42581C13.0307 9.41577 13.0383 9.40555 13.0461 9.3954C13.0581 9.37986 13.07 9.36427 13.0817 9.34846C13.0894 9.33802 13.0969 9.32741 13.1046 9.31685C13.1161 9.30088 13.1278 9.28496 13.1391 9.26871C13.1476 9.25654 13.1558 9.24416 13.1642 9.23183C13.1731 9.21883 13.1818 9.20574 13.1905 9.19256C13.2008 9.17704 13.2109 9.16138 13.221 9.14562C13.2284 9.13392 13.236 9.12225 13.2434 9.11042C13.2539 9.0935 13.2642 9.07636 13.2745 9.05917C13.2815 9.04752 13.2888 9.03598 13.2957 9.0242C13.3082 9.00289 13.3205 8.98129 13.3327 8.95954C13.3365 8.95286 13.3402 8.94615 13.3439 8.93943C13.3532 8.92273 13.3623 8.90586 13.3714 8.8889C13.3819 8.86933 13.3925 8.84966 13.4028 8.82974C13.407 8.82165 13.4111 8.81347 13.4152 8.80532C13.4254 8.78551 13.4355 8.76561 13.4454 8.74545C13.4535 8.72915 13.4612 8.71264 13.4691 8.69612C13.4774 8.67864 13.4859 8.66116 13.4941 8.64343C13.5013 8.62798 13.5083 8.61238 13.5153 8.59673C13.5232 8.57917 13.5314 8.56162 13.5392 8.54381C13.5449 8.53067 13.5503 8.51733 13.556 8.50405C13.5794 8.44931 13.6026 8.39355 13.6249 8.33642C13.6476 8.27809 13.6697 8.21842 13.6913 8.15753C13.6952 8.14679 13.699 8.13601 13.7028 8.1252C13.7101 8.10422 13.7172 8.08302 13.7245 8.06173C13.7439 8.00457 13.7631 7.94634 13.7817 7.88691C13.788 7.86665 13.7939 7.84614 13.8002 7.82561C13.8661 7.60947 13.9278 7.3787 13.9852 7.13159C14.0135 7.0098 14.0403 6.88396 14.067 6.75417C14.101 6.58934 14.1344 6.41807 14.1664 6.23977C14.1806 6.16038 14.2255 6.10214 14.2847 6.06519C14.2953 6.05856 14.3064 6.0525 14.3178 6.04723ZM14.461 9.93279C14.2688 10.2316 14.0468 10.5093 13.7878 10.7635C13.5303 11.0163 13.2494 11.2331 12.947 11.4209C13.2494 11.6088 13.5303 11.8256 13.7878 12.0783C14.0468 12.3325 14.2688 12.6102 14.461 12.909C14.6532 12.6102 14.8752 12.3325 15.1342 12.0783C15.3917 11.8256 15.6728 11.6088 15.9752 11.4209C15.6728 11.2331 15.3917 11.0163 15.1342 10.7635C14.8752 10.5093 14.6532 10.2316 14.461 9.93279Z" fill="#111111"/>
  <path d="M30.7243 31.1356C29.3355 31.1356 28.1087 30.8745 27.0439 30.3524C26.0023 29.8075 25.1458 29.0811 24.4746 28.1731L26.7661 26.0959C27.2059 26.7316 27.7499 27.2196 28.398 27.5601C29.0693 27.9007 29.81 28.0709 30.6201 28.0709C31.4303 28.0709 32.1478 27.9007 32.7728 27.5601C33.3978 27.2196 33.8839 26.7202 34.2311 26.0619C34.6014 25.3808 34.7866 24.5522 34.7866 23.5761V7.16326H38.0504V23.4058C38.0504 24.9722 37.7263 26.3343 37.0782 27.492C36.4532 28.6498 35.5852 29.5465 34.4741 30.1821C33.3862 30.8177 32.1363 31.1356 30.7243 31.1356Z" fill="#111111"/>
  <path d="M42.95 30.795V14.6205H46.0749V30.795H42.95Z" fill="#111111"/>
  <path fill-rule="evenodd" clip-rule="evenodd" d="M53.5965 30.0459C54.8233 30.7723 56.189 31.1356 57.6936 31.1356C58.9666 31.1356 60.0893 30.8858 61.0615 30.3864C61.9238 29.934 62.6298 29.3368 63.1794 28.5947V30.795H66.339V14.6205H63.1794V16.8328C62.6111 16.088 61.8935 15.4981 61.0267 15.0632C60.0546 14.5411 58.9435 14.28 57.6936 14.28C56.1658 14.28 54.7886 14.6546 53.5618 15.4037C52.3582 16.1529 51.3975 17.1631 50.68 18.4343C49.9856 19.7056 49.6384 21.1357 49.6384 22.7248C49.6384 24.3139 49.9856 25.7441 50.68 27.0153C51.3975 28.2866 52.3697 29.2968 53.5965 30.0459ZM63.1794 16.8328V18.5705L63.7697 22.4865L63.1794 26.4364V28.5947C63.2641 28.4803 63.3452 28.3625 63.4225 28.2412C64.0243 27.3331 64.3599 26.3002 64.4294 25.1425V20.2731C64.3599 19.0926 64.0243 18.0598 63.4225 17.1744C63.3447 17.0571 63.2637 16.9433 63.1794 16.8328ZM61.9642 26.7088C61.0152 27.7304 59.7652 28.2412 58.2144 28.2412C57.1727 28.2412 56.2469 28.0028 55.4367 27.5261C54.6266 27.0494 53.99 26.4024 53.5271 25.5851C53.0873 24.7452 52.8674 23.7804 52.8674 22.6908C52.8674 21.6238 53.0873 20.6817 53.5271 19.8645C53.99 19.0245 54.615 18.3662 55.402 17.8895C56.2121 17.4128 57.138 17.1744 58.1796 17.1744C59.2213 17.1744 60.1356 17.4128 60.9226 17.8895C61.7096 18.3435 62.3114 18.9905 62.7281 19.8304C63.1679 20.6477 63.3877 21.6125 63.3877 22.7248C63.3877 24.3366 62.9132 25.6646 61.9642 26.7088Z" fill="#111111"/>
  <path d="M63.1794 16.8328C63.2637 16.9433 63.3447 17.0571 63.4225 17.1744C64.0243 18.0598 64.3599 19.0926 64.4294 20.2731V25.1425C64.3599 26.3002 64.0243 27.3331 63.4225 28.2412C63.3452 28.3625 63.2641 28.4803 63.1794 28.5947V26.4364L63.7697 22.4865L63.1794 18.5705V16.8328Z" fill="#111111"/>
  <path d="M44.7989 6.19887C44.7451 5.95625 44.3244 5.95625 44.2706 6.19887C43.9348 7.71225 43.3971 8.23965 41.854 8.56892C41.6066 8.62171 41.6066 9.03427 41.854 9.08706C43.3971 9.41634 43.9348 9.94376 44.2706 11.4571C44.3244 11.6998 44.7451 11.6998 44.7989 11.4571C45.1346 9.94376 45.6724 9.41634 47.2156 9.08706C47.4629 9.03427 47.4629 8.62171 47.2155 8.56892C45.6724 8.23965 45.1346 7.71225 44.7989 6.19887Z" fill="#111111"/>
  <path d="M77.5057 17.4632V17.0613H78.7113V17.4632C78.7113 17.6281 78.7629 17.7672 78.8659 17.8805C78.9741 17.9887 79.139 18.0428 79.3606 18.0428C79.7882 18.0428 80.0021 17.8342 80.0021 17.4168V13.3824H81.2541V17.4941C81.2541 17.9939 81.0815 18.4035 80.7363 18.723C80.3962 19.0424 79.9428 19.2022 79.376 19.2022C78.768 19.2022 78.3043 19.0424 77.9848 18.723C77.6654 18.3984 77.5057 17.9784 77.5057 17.4632ZM90.0043 14.1011C90.5247 14.6473 90.7849 15.3584 90.7849 16.2343C90.7849 17.1102 90.5221 17.8239 89.9966 18.3752C89.4762 18.9213 88.8012 19.1944 87.9716 19.1944C87.1472 19.1944 86.4748 18.9213 85.9544 18.3752C85.4391 17.829 85.1815 17.118 85.1815 16.242C85.1815 15.3661 85.4417 14.655 85.9621 14.1089C86.4825 13.5575 87.1549 13.2819 87.9793 13.2819C88.8089 13.2819 89.4839 13.555 90.0043 14.1011ZM89.4633 16.2343C89.4633 15.6881 89.3319 15.2605 89.0691 14.9513C88.8063 14.6422 88.4456 14.4876 87.9871 14.4876C87.5233 14.4876 87.1601 14.6422 86.8973 14.9513C86.6345 15.2605 86.5031 15.6881 86.5031 16.2343C86.5031 16.7805 86.6345 17.2107 86.8973 17.525C87.1601 17.8342 87.5233 17.9887 87.9871 17.9887C88.4456 17.9887 88.8063 17.8316 89.0691 17.5173C89.3319 17.203 89.4633 16.7753 89.4633 16.2343ZM94.7488 19.1017V13.3824H97.1293C97.7064 13.3824 98.1572 13.5241 98.4818 13.8074C98.8116 14.0908 98.9765 14.4773 98.9765 14.9668C98.9765 15.5902 98.7111 16.0179 98.1804 16.2498C98.7575 16.4404 99.046 16.8655 99.046 17.525C99.046 18.03 98.8812 18.419 98.5514 18.6921C98.2216 18.9651 97.7476 19.1017 97.1293 19.1017H94.7488ZM96.9979 14.4799H96.0009V15.7242H96.9979C97.2246 15.7242 97.3972 15.6701 97.5157 15.5619C97.6342 15.4537 97.6935 15.2965 97.6935 15.0904C97.6935 14.6834 97.4616 14.4799 96.9979 14.4799ZM97.0597 16.7753H96.0009V18.0042H97.0597C97.5286 18.0042 97.7631 17.7929 97.7631 17.3704C97.7631 16.9737 97.5286 16.7753 97.0597 16.7753ZM80.2648 28.2004H79.1983V30.1017H77.9462V24.3824H80.2648C80.8471 24.3824 81.316 24.5575 81.6715 24.9079C82.0322 25.2583 82.2125 25.7194 82.2125 26.2914C82.2125 26.8633 82.0322 27.3245 81.6715 27.6748C81.316 28.0252 80.8471 28.2004 80.2648 28.2004ZM79.9866 25.4953H79.1983V27.0874H79.9866C80.5894 27.0874 80.8909 26.8221 80.8909 26.2914C80.8909 25.7607 80.5894 25.4953 79.9866 25.4953ZM90.6006 25.1011C91.121 25.6473 91.3812 26.3584 91.3812 27.2343C91.3812 28.1102 91.1184 28.8239 90.5928 29.3752C90.0724 29.9213 89.3974 30.1944 88.5679 30.1944C87.7435 30.1944 87.0711 29.9213 86.5507 29.3752C86.0354 28.829 85.7778 28.118 85.7778 27.242C85.7778 26.3661 86.038 25.655 86.5584 25.1089C87.0788 24.5575 87.7512 24.2819 88.5756 24.2819C89.4052 24.2819 90.0801 24.555 90.6006 25.1011ZM90.0595 27.2343C90.0595 26.6881 89.9281 26.2605 89.6654 25.9513C89.4026 25.6422 89.0419 25.4876 88.5833 25.4876C88.1196 25.4876 87.7564 25.6422 87.4936 25.9513C87.2308 26.2605 87.0994 26.6881 87.0994 27.2343C87.0994 27.7805 87.2308 28.2107 87.4936 28.525C87.7564 28.8342 88.1196 28.9887 88.5833 28.9887C89.0419 28.9887 89.4026 28.8316 89.6654 28.5173C89.9281 28.203 90.0595 27.7753 90.0595 27.2343ZM96.5972 30.1017H95.3451V24.3824H97.5555C98.2511 24.3824 98.787 24.5447 99.1631 24.8693C99.5444 25.1887 99.735 25.6447 99.735 26.2373C99.735 26.9741 99.4182 27.5048 98.7844 27.8294L99.7892 30.1017H98.4212L97.5633 28.0999H96.5972V30.1017ZM96.5972 25.4953V27.0024H97.5478C97.8209 27.0024 98.0321 26.9354 98.1816 26.8015C98.3361 26.6675 98.4134 26.4794 98.4134 26.2373C98.4134 25.9951 98.3387 25.8122 98.1893 25.6885C98.045 25.5597 97.8338 25.4953 97.5555 25.4953H96.5972ZM103.242 25.5417V24.3824H107.74V25.5417H106.117V30.1017H104.865V25.5417H103.242ZM111.857 30.1017H110.55L112.591 24.3824H113.812L115.845 30.1017H114.515L114.113 28.896H112.266L111.857 30.1017ZM113.039 26.6237L112.629 27.8449H113.758L113.348 26.6237C113.261 26.3558 113.209 26.1703 113.194 26.0672C113.173 26.2012 113.121 26.3867 113.039 26.6237ZM120.854 24.3824V28.9424H123.111V30.1017H119.602V24.3824H120.854Z" fill="#474B69"/>
</svg>
