<svg width="24" height="24" viewBox="0 0 24 24" fill="none"
  xmlns="http://www.w3.org/2000/svg">
  <mask id="mask0_1665_9068" style="mask-type:alpha" maskUnits="userSpaceOnUse" x="0" y="0" width="24" height="24">
    <rect width="24" height="24" fill="#D9D9D9"/>
  </mask>
  <g mask="url(#mask0_1665_9068)">
    <path d="M12 20.5C10.8205 20.5 9.71542 20.2769 8.68475 19.8307C7.65392 19.3846 6.75517 18.7782 5.9885 18.0115C5.22183 17.2448 4.61542 16.3461 4.16925 15.3152C3.72308 14.2846 3.5 13.1795 3.5 12C3.5 10.8205 3.72308 9.71542 4.16925 8.68475C4.61542 7.65392 5.22183 6.75517 5.9885 5.9885C6.75517 5.22183 7.65392 4.61542 8.68475 4.16925C9.71542 3.72308 10.8205 3.5 12 3.5V5C10.05 5 8.39583 5.67917 7.0375 7.0375C5.67917 8.39583 5 10.05 5 12C5 13.95 5.67917 15.6042 7.0375 16.9625C8.39583 18.3208 10.05 19 12 19V20.5ZM16 16.6443L14.9462 15.575L17.7807 12.75H9.25V11.25H17.7712L14.9462 8.4L16 7.35575L20.6443 12L16 16.6443Z" fill="#E81745"/>
  </g>
</svg>
