<svg width="56" height="56" viewBox="0 0 56 56" fill="none"
  xmlns="http://www.w3.org/2000/svg">
  <rect x="4" y="4" width="48" height="48" rx="24" fill="#FEE4E2"/>
  <rect x="4" y="4" width="48" height="48" rx="24" stroke="#FEF3F2" stroke-width="8"/>
  <mask id="mask0_2988_30971" style="mask-type:alpha" maskUnits="userSpaceOnUse" x="16" y="16" width="24" height="24">
    <rect x="16" y="16" width="24" height="24" fill="#D9D9D9"/>
  </mask>
  <g mask="url(#mask0_2988_30971)">
    <path d="M28 36.5C26.8205 36.5 25.7154 36.2769 24.6848 35.8307C23.6539 35.3846 22.7552 34.7782 21.9885 34.0115C21.2218 33.2448 20.6154 32.3461 20.1693 31.3152C19.7231 30.2846 19.5 29.1795 19.5 28C19.5 26.8205 19.7231 25.7154 20.1693 24.6848C20.6154 23.6539 21.2218 22.7552 21.9885 21.9885C22.7552 21.2218 23.6539 20.6154 24.6848 20.1693C25.7154 19.7231 26.8205 19.5 28 19.5V21C26.05 21 24.3958 21.6792 23.0375 23.0375C21.6792 24.3958 21 26.05 21 28C21 29.95 21.6792 31.6042 23.0375 32.9625C24.3958 34.3208 26.05 35 28 35V36.5ZM32 32.6443L30.9462 31.575L33.7807 28.75H25.25V27.25H33.7712L30.9462 24.4L32 23.3557L36.6443 28L32 32.6443Z" fill="#E81745"/>
  </g>
</svg>
