<svg width="16" height="16" viewBox="0 0 16 16" fill="none"
  xmlns="http://www.w3.org/2000/svg">
  <path d="M13.3334 6.66671C13.3334 9.99537 9.64075 13.462 8.40075 14.5327C8.28523 14.6196 8.14461 14.6665 8.00008 14.6665C7.85555 14.6665 7.71493 14.6196 7.59941 14.5327C6.35941 13.462 2.66675 9.99537 2.66675 6.66671C2.66675 5.25222 3.22865 3.89567 4.22885 2.89547C5.22904 1.89528 6.58559 1.33337 8.00008 1.33337C9.41457 1.33337 10.7711 1.89528 11.7713 2.89547C12.7715 3.89567 13.3334 5.25222 13.3334 6.66671Z" stroke="#9498B8" stroke-width="1.25" stroke-linecap="round" stroke-linejoin="round"/>
  <path d="M8.00008 8.66671C9.10465 8.66671 10.0001 7.77128 10.0001 6.66671C10.0001 5.56214 9.10465 4.66671 8.00008 4.66671C6.89551 4.66671 6.00008 5.56214 6.00008 6.66671C6.00008 7.77128 6.89551 8.66671 8.00008 8.66671Z" stroke="#9498B8" stroke-width="1.25" stroke-linecap="round" stroke-linejoin="round"/>
</svg>
