<svg width="56" height="56" viewBox="0 0 56 56" fill="none"
  xmlns="http://www.w3.org/2000/svg">
  <rect x="4" y="4" width="48" height="48" rx="24" fill="#FEF0C7"/>
  <rect x="4" y="4" width="48" height="48" rx="24" stroke="#FFFAEB" stroke-width="8"/>
  <path d="M17 20.0004V26.0004M17 26.0004H23M17 26.0004L21.64 21.6404C23.0209 20.2619 24.8125 19.3694 26.7447 19.0976C28.6769 18.8257 30.6451 19.1892 32.3528 20.1332C34.0605 21.0772 35.4152 22.5507 36.2126 24.3315C37.0101 26.1124 37.2072 28.1042 36.7742 30.0068C36.3413 31.9094 35.3017 33.6198 33.8121 34.8802C32.3226 36.1406 30.4637 36.8828 28.5157 36.9949C26.5677 37.107 24.636 36.583 23.0117 35.5018C21.3873 34.4206 20.1584 32.8408 19.51 31.0004" stroke="#DC6803" stroke-width="2" stroke-linecap="round" stroke-linejoin="round"/>
</svg>
