<svg width="36" height="37" viewBox="0 0 36 37" fill="none"
  xmlns="http://www.w3.org/2000/svg">
  <path d="M4.5 18.665C4.5 21.3351 5.29176 23.9452 6.77516 26.1652C8.25856 28.3853 10.367 30.1156 12.8338 31.1374C15.3006 32.1592 18.015 32.4265 20.6337 31.9056C23.2525 31.3847 25.6579 30.099 27.5459 28.211C29.4339 26.323 30.7197 23.9175 31.2406 21.2988C31.7615 18.68 31.4942 15.9656 30.4724 13.4988C29.4506 11.032 27.7203 8.9236 25.5002 7.4402C23.2801 5.9568 20.67 5.16504 18 5.16504C14.2259 5.17924 10.6035 6.65187 7.89 9.27504L4.5 12.665M4.5 12.665V5.16504M4.5 12.665H12" stroke="#181d27" stroke-width="3" stroke-linecap="round" stroke-linejoin="round" fill="none"/>
</svg>
