<svg width="56" height="56" viewBox="0 0 56 56" fill="none"
  xmlns="http://www.w3.org/2000/svg">
  <rect x="4" y="4" width="48" height="48" rx="24" fill="#FEF0C7"/>
  <rect x="4" y="4" width="48" height="48" rx="24" stroke="#FFFAEB" stroke-width="8"/>
  <path d="M34 32.12C33.24 32.12 32.56 32.42 32.04 32.89L24.91 28.74C24.96 28.51 25 28.28 25 28.04C25 27.8 24.96 27.57 24.91 27.34L31.96 23.23C32.5 23.73 33.21 24.04 34 24.04C35.66 24.04 37 22.7 37 21.04C37 19.38 35.66 18.04 34 18.04C32.34 18.04 31 19.38 31 21.04C31 21.28 31.04 21.51 31.09 21.74L24.04 25.85C23.5 25.35 22.79 25.04 22 25.04C20.34 25.04 19 26.38 19 28.04C19 29.7 20.34 31.04 22 31.04C22.79 31.04 23.5 30.73 24.04 30.23L31.16 34.39C31.11 34.6 31.08 34.82 31.08 35.04C31.08 36.65 32.39 37.96 34 37.96C35.61 37.96 36.92 36.65 36.92 35.04C36.92 33.43 35.61 32.12 34 32.12ZM34 20.04C34.55 20.04 35 20.49 35 21.04C35 21.59 34.55 22.04 34 22.04C33.45 22.04 33 21.59 33 21.04C33 20.49 33.45 20.04 34 20.04ZM22 29.04C21.45 29.04 21 28.59 21 28.04C21 27.49 21.45 27.04 22 27.04C22.55 27.04 23 27.49 23 28.04C23 28.59 22.55 29.04 22 29.04ZM34 36.06C33.45 36.06 33 35.61 33 35.06C33 34.51 33.45 34.06 34 34.06C34.55 34.06 35 34.51 35 35.06C35 35.61 34.55 36.06 34 36.06Z" fill="#F79009"/>
</svg>
