<svg width="36" height="36" viewBox="0 0 36 36" fill="none"
  xmlns="http://www.w3.org/2000/svg">
  <rect x="2" y="2" width="32" height="32" rx="16" fill="#FEE4E2"/>
  <rect x="2" y="2" width="32" height="32" rx="16" stroke="#FEF3F2" stroke-width="4"/>
  <path d="M12 13.9997H13.3333M13.3333 13.9997H24M13.3333 13.9997V23.333C13.3333 23.6866 13.4738 24.0258 13.7239 24.2758C13.9739 24.5259 14.313 24.6663 14.6667 24.6663H21.3333C21.687 24.6663 22.0261 24.5259 22.2761 24.2758C22.5262 24.0258 22.6667 23.6866 22.6667 23.333V13.9997H13.3333ZM15.3333 13.9997V12.6663C15.3333 12.3127 15.4738 11.9736 15.7239 11.7235C15.9739 11.4735 16.313 11.333 16.6667 11.333H19.3333C19.687 11.333 20.0261 11.4735 20.2761 11.7235C20.5262 11.9736 20.6667 12.3127 20.6667 12.6663V13.9997M16.6667 17.333V21.333M19.3333 17.333V21.333" stroke="#D92D20" stroke-width="1.33333" stroke-linecap="round" stroke-linejoin="round"/>
</svg>
