<svg width="31" height="30" viewBox="0 0 31 30" fill="none"
  xmlns="http://www.w3.org/2000/svg">
  <rect x="2.5" y="2" width="26" height="26" rx="13" fill="#FEE4E2"/>
  <rect x="2.5" y="2" width="26" height="26" rx="13" stroke="#FEF3F2" stroke-width="3.25"/>
  <path d="M17.6667 19.875V18.7917C17.6667 18.217 17.4385 17.6659 17.0321 17.2596C16.6258 16.8533 16.0747 16.625 15.5001 16.625H11.7084C11.1338 16.625 10.5827 16.8533 10.1763 17.2596C9.77001 17.6659 9.54173 18.217 9.54173 18.7917V19.875M18.7501 12.8333L21.4584 15.5417M21.4584 12.8333L18.7501 15.5417M15.7709 12.2917C15.7709 13.4883 14.8008 14.4583 13.6042 14.4583C12.4076 14.4583 11.4376 13.4883 11.4376 12.2917C11.4376 11.095 12.4076 10.125 13.6042 10.125C14.8008 10.125 15.7709 11.095 15.7709 12.2917Z" stroke="#D92D20" stroke-width="1.08333" stroke-linecap="round" stroke-linejoin="round"/>
</svg>
