<svg width="51" height="50" viewBox="0 0 51 50" fill="none"
  xmlns="http://www.w3.org/2000/svg">
  <path d="M8.83366 16.6667V39.5833C8.83366 40.6884 9.27265 41.7482 10.054 42.5296C10.8354 43.311 11.8953 43.75 13.0003 43.75H17.167M42.167 16.6667V39.5833C42.167 40.6884 41.728 41.7482 40.9466 42.5296C40.1652 43.311 39.1054 43.75 38.0003 43.75H33.8337M19.2503 31.25L25.5003 25M25.5003 25L31.7503 31.25M25.5003 25V43.75M6.75033 6.25H44.2503C45.4009 6.25 46.3337 7.18274 46.3337 8.33333V14.5833C46.3337 15.7339 45.4009 16.6667 44.2503 16.6667H6.75033C5.59973 16.6667 4.66699 15.7339 4.66699 14.5833V8.33333C4.66699 7.18274 5.59973 6.25 6.75033 6.25Z" stroke="#9747FF" stroke-width="2.33333" stroke-linecap="round" stroke-linejoin="round"/>
</svg>
