<svg width="20" height="20" viewBox="0 0 20 20" fill="none"
  xmlns="http://www.w3.org/2000/svg">
  <path d="M3.33341 6.66667V15.8333C3.33341 16.2754 3.50901 16.6993 3.82157 17.0118C4.13413 17.3244 4.55805 17.5 5.00008 17.5H15.0001C15.4421 17.5 15.866 17.3244 16.1786 17.0118C16.4912 16.6993 16.6667 16.2754 16.6667 15.8333V6.66667M8.33341 10H11.6667M2.50008 2.5H17.5001C17.9603 2.5 18.3334 2.8731 18.3334 3.33333V5.83333C18.3334 6.29357 17.9603 6.66667 17.5001 6.66667H2.50008C2.03984 6.66667 1.66675 6.29357 1.66675 5.83333V3.33333C1.66675 2.8731 2.03984 2.5 2.50008 2.5Z" stroke="white" stroke-width="2.5" stroke-linecap="round" stroke-linejoin="round"/>
</svg>
