<svg width="36" height="36" viewBox="0 0 36 36" fill="none"
  xmlns="http://www.w3.org/2000/svg">
  <path d="M15.4019 31.5C15.6652 31.956 16.0439 32.3347 16.4999 32.598C16.956 32.8613 17.4733 32.9999 17.9999 32.9999C18.5265 32.9999 19.0438 32.8613 19.4998 32.598C19.9559 32.3347 20.3346 31.956 20.5979 31.5M4.89288 22.989C4.69693 23.2038 4.56761 23.4709 4.52066 23.7578C4.47372 24.0447 4.51116 24.3391 4.62844 24.6051C4.74572 24.8711 4.93778 25.0973 5.18126 25.2562C5.42474 25.4151 5.70915 25.4998 5.99988 25.5H29.9999C30.2906 25.5001 30.575 25.4157 30.8187 25.2572C31.0623 25.0986 31.2546 24.8726 31.3722 24.6068C31.4898 24.3409 31.5276 24.0466 31.481 23.7597C31.4345 23.4727 31.3055 23.2055 31.1099 22.9905C29.1149 20.934 26.9999 18.7485 26.9999 12C26.9999 9.61305 26.0517 7.32387 24.3638 5.63604C22.676 3.94821 20.3868 3 17.9999 3C15.6129 3 13.3237 3.94821 11.6359 5.63604C9.94809 7.32387 8.99988 9.61305 8.99988 12C8.99988 18.7485 6.88338 20.934 4.89288 22.989Z" stroke="#9747FF" stroke-width="3" stroke-linecap="round" stroke-linejoin="round"/>
</svg>
