<svg width="24" height="25" viewBox="0 0 24 25" fill="none"
  xmlns="http://www.w3.org/2000/svg">
  <path d="M10.2678 21.665C10.4433 21.9691 10.6958 22.2215 10.9998 22.397C11.3038 22.5725 11.6487 22.665 11.9998 22.665C12.3508 22.665 12.6957 22.5725 12.9997 22.397C13.3037 22.2215 13.5562 21.9691 13.7318 21.665M3.26176 15.991C3.13112 16.1342 3.04491 16.3123 3.01361 16.5036C2.98231 16.6948 3.00728 16.8911 3.08546 17.0684C3.16365 17.2458 3.29169 17.3966 3.45401 17.5025C3.61633 17.6084 3.80594 17.6649 3.99976 17.665H19.9998C20.1936 17.6651 20.3832 17.6089 20.5456 17.5031C20.708 17.3974 20.8363 17.2468 20.9146 17.0696C20.993 16.8923 21.0182 16.6961 20.9872 16.5048C20.9561 16.3135 20.8702 16.1354 20.7398 15.992C19.4098 14.621 17.9998 13.164 17.9998 8.66504C17.9998 7.07374 17.3676 5.54762 16.2424 4.4224C15.1172 3.29718 13.5911 2.66504 11.9998 2.66504C10.4085 2.66504 8.88234 3.29718 7.75712 4.4224C6.6319 5.54762 5.99976 7.07374 5.99976 8.66504C5.99976 13.164 4.58876 14.621 3.26176 15.991Z" stroke="black" stroke-width="2" stroke-linecap="round" stroke-linejoin="round"/>
</svg>
