<svg width="18" height="19" viewBox="0 0 18 19" fill="none"
  xmlns="http://www.w3.org/2000/svg">
  <g clip-path="url(#clip0_354_2721)">
    <path d="M9 9.229H9.0075M12 4.729V3.229C12 2.83118 11.842 2.44965 11.5607 2.16834C11.2794 1.88704 10.8978 1.729 10.5 1.729H7.5C7.10218 1.729 6.72064 1.88704 6.43934 2.16834C6.15804 2.44965 6 2.83118 6 3.229V4.729M16.5 9.979C14.2746 11.4482 11.6667 12.2315 9 12.2315C6.33334 12.2315 3.72541 11.4482 1.5 9.979M3 4.729H15C15.8284 4.729 16.5 5.40058 16.5 6.229V13.729C16.5 14.5574 15.8284 15.229 15 15.229H3C2.17157 15.229 1.5 14.5574 1.5 13.729V6.229C1.5 5.40058 2.17157 4.729 3 4.729Z" stroke="white" stroke-width="2" stroke-linecap="round" stroke-linejoin="round"/>
  </g>
  <defs>
    <clipPath id="clip0_354_2721">
      <rect width="18" height="18" fill="white" transform="translate(0 0.229004)"/>
    </clipPath>
  </defs>
</svg>
