<svg width="20" height="21" viewBox="0 0 20 21" fill="none"
  xmlns="http://www.w3.org/2000/svg">
  <path d="M9.99984 11.4984C10.4601 11.4984 10.8332 11.1253 10.8332 10.6651C10.8332 10.2048 10.4601 9.83175 9.99984 9.83175C9.5396 9.83175 9.1665 10.2048 9.1665 10.6651C9.1665 11.1253 9.5396 11.4984 9.99984 11.4984Z" stroke="#2A2A2A" stroke-opacity="0.7" stroke-width="2" stroke-linecap="round" stroke-linejoin="round"/>
  <path d="M9.99984 5.66508C10.4601 5.66508 10.8332 5.29198 10.8332 4.83175C10.8332 4.37151 10.4601 3.99841 9.99984 3.99841C9.5396 3.99841 9.1665 4.37151 9.1665 4.83175C9.1665 5.29198 9.5396 5.66508 9.99984 5.66508Z" stroke="#2A2A2A" stroke-opacity="0.7" stroke-width="2" stroke-linecap="round" stroke-linejoin="round"/>
  <path d="M9.99984 17.3317C10.4601 17.3317 10.8332 16.9587 10.8332 16.4984C10.8332 16.0382 10.4601 15.6651 9.99984 15.6651C9.5396 15.6651 9.1665 16.0382 9.1665 16.4984C9.1665 16.9587 9.5396 17.3317 9.99984 17.3317Z" stroke="#2A2A2A" stroke-opacity="0.7" stroke-width="2" stroke-linecap="round" stroke-linejoin="round"/>
</svg>
