<svg width="37" height="36" viewBox="0 0 37 36" fill="none"
  xmlns="http://www.w3.org/2000/svg">
  <path d="M21.5 3V9C21.5 9.79565 21.8161 10.5587 22.3787 11.1213C22.9413 11.6839 23.7044 12 24.5 12H30.5M14 22.5L17 25.5L23 19.5M23 3H9.5C8.70435 3 7.94129 3.31607 7.37868 3.87868C6.81607 4.44129 6.5 5.20435 6.5 6V30C6.5 30.7956 6.81607 31.5587 7.37868 32.1213C7.94129 32.6839 8.70435 33 9.5 33H27.5C28.2956 33 29.0587 32.6839 29.6213 32.1213C30.1839 31.5587 30.5 30.7956 30.5 30V10.5L23 3Z" stroke="#9747FF" stroke-width="3" stroke-linecap="round" stroke-linejoin="round"/>
</svg>
