<svg width="13" height="16" viewBox="0 0 13 16" fill="none"
  xmlns="http://www.w3.org/2000/svg">
  <path d="M7.75 1.5V4.1C7.75 4.44478 7.8817 4.77544 8.11612 5.01924C8.35054 5.26304 8.66848 5.4 9 5.4H11.5M5.25 6.05H4M9 8.65H4M9 11.25H4M8.375 1.5H2.75C2.41848 1.5 2.10054 1.63696 1.86612 1.88076C1.6317 2.12456 1.5 2.45522 1.5 2.8V13.2C1.5 13.5448 1.6317 13.8754 1.86612 14.1192C2.10054 14.363 2.41848 14.5 2.75 14.5H10.25C10.5815 14.5 10.8995 14.363 11.1339 14.1192C11.3683 13.8754 11.5 13.5448 11.5 13.2V4.75L8.375 1.5Z" stroke="#9747FF" stroke-width="1.16667" stroke-linecap="round" stroke-linejoin="round"/>
</svg>
