<svg width="29" height="29" viewBox="0 0 29 29" fill="none"
  xmlns="http://www.w3.org/2000/svg">
  <path d="M16.8333 2.99805V7.66471C16.8333 8.28355 17.0792 8.87704 17.5167 9.31463C17.9543 9.75221 18.5478 9.99805 19.1667 9.99805H23.8333M12.1667 11.1647H9.83332M19.1667 15.8314H9.83332M19.1667 20.498H9.83332M18 2.99805H7.49999C6.88115 2.99805 6.28766 3.24388 5.85007 3.68146C5.41249 4.11905 5.16666 4.71254 5.16666 5.33138V23.998C5.16666 24.6169 5.41249 25.2104 5.85007 25.648C6.28766 26.0855 6.88115 26.3314 7.49999 26.3314H21.5C22.1188 26.3314 22.7123 26.0855 23.1499 25.648C23.5875 25.2104 23.8333 24.6169 23.8333 23.998V8.83138L18 2.99805Z" stroke="#6A6A6A" stroke-width="2.33333" stroke-linecap="round" stroke-linejoin="round"/>
</svg>
