<svg width="50" height="50" viewBox="0 0 50 50" fill="none"
  xmlns="http://www.w3.org/2000/svg">
  <path d="M4.1665 20.8333H45.8332M41.6665 41.6667C42.7716 41.6667 43.8314 41.2277 44.6128 40.4463C45.3942 39.6649 45.8332 38.6051 45.8332 37.5V16.6667C45.8332 15.5616 45.3942 14.5018 44.6128 13.7204C43.8314 12.939 42.7716 12.5 41.6665 12.5H25.2082C24.5113 12.5068 23.8239 12.3388 23.2088 12.0112C22.5937 11.6836 22.0706 11.207 21.6873 10.625L19.9998 8.125C19.6204 7.5489 19.104 7.076 18.4967 6.74874C17.8895 6.42149 17.2105 6.25011 16.5207 6.25H8.33317C7.2281 6.25 6.16829 6.68899 5.38689 7.47039C4.60549 8.25179 4.1665 9.3116 4.1665 10.4167V37.5C4.1665 38.6051 4.60549 39.6649 5.38689 40.4463C6.16829 41.2277 7.2281 41.6667 8.33317 41.6667H41.6665Z" stroke="#9747FF" stroke-width="2.33333" stroke-linecap="round" stroke-linejoin="round"/>
</svg>
