<svg width="13" height="13" viewBox="0 0 13 13" fill="none"
  xmlns="http://www.w3.org/2000/svg">
  <g transform="translate(0.5, 0.5)">
    <path d="M5.27 9.135C5.26995 9.2243 5.2948 9.31184 5.34174 9.38781C5.38868 9.46378 5.45585 9.52515 5.53574 9.56509L6.49682 10.0457C6.5701 10.0823 6.65152 10.0995 6.73336 10.0958C6.8152 10.0921 6.89473 10.0676 6.9644 10.0245C7.03407 9.98141 7.09157 9.92121 7.13143 9.84963C7.17129 9.77805 7.1922 9.69743 7.19216 9.61557V6.25175C7.19227 6.01359 7.2808 5.78395 7.4406 5.60735L10.9115 1.76831C10.9737 1.69938 11.0146 1.6139 11.0293 1.52221C11.0439 1.43053 11.0317 1.33655 10.9941 1.25166C10.9565 1.16677 10.8951 1.0946 10.8173 1.04387C10.7395 0.993138 10.6487 0.966015 10.5559 0.965797H1.90615C1.81322 0.965837 1.72229 0.992813 1.64437 1.04346C1.56646 1.09412 1.50491 1.16629 1.46718 1.25121C1.42944 1.33614 1.41714 1.43019 1.43177 1.52196C1.4464 1.61373 1.48732 1.6993 1.54959 1.76829L5.0215 5.60733C5.18129 5.78393 5.26983 6.01357 5.26994 6.25173V9.135Z" stroke="#75767C" stroke-width="1.28144" stroke-linecap="round" stroke-linejoin="round"/>
  </g>
</svg>
