<svg width="19" height="20" viewBox="0 0 19 20" fill="none"
  xmlns="http://www.w3.org/2000/svg">
  <g clip-path="url(#clip0_530_2614)">
    <path d="M14.3867 11.4502C15.5042 10.3552 16.6367 9.0427 16.6367 7.3252C16.6367 6.23118 16.2021 5.18197 15.4285 4.40838C14.6549 3.63479 13.6057 3.2002 12.5117 3.2002C11.1917 3.2002 10.2617 3.5752 9.13672 4.7002C8.01172 3.5752 7.08172 3.2002 5.76172 3.2002C4.6677 3.2002 3.61849 3.63479 2.8449 4.40838C2.07132 5.18197 1.63672 6.23118 1.63672 7.3252C1.63672 9.0502 2.76172 10.3627 3.88672 11.4502L9.13672 16.7002L14.3867 11.4502Z" stroke="#9747FF" stroke-width="2" stroke-linecap="round" stroke-linejoin="round"/>
  </g>
  <defs>
    <clipPath id="clip0_530_2614">
      <rect width="18.7597" height="18.7597" fill="white" transform="translate(0.136719 0.950195)"/>
    </clipPath>
  </defs>
</svg>
