<svg width="16" height="17" viewBox="0 0 16 17" fill="none"
  xmlns="http://www.w3.org/2000/svg">
  <path d="M6.05998 6.33464C6.21672 5.88908 6.52608 5.51337 6.93328 5.27406C7.34048 5.03474 7.81924 4.94726 8.28476 5.02711C8.75028 5.10696 9.17252 5.34899 9.4767 5.71032C9.78087 6.07166 9.94735 6.52898 9.94665 7.0013C9.94665 8.33464 7.94665 9.0013 7.94665 9.0013M7.99998 11.668H8.00665M14.6666 8.33464C14.6666 12.0165 11.6819 15.0013 7.99998 15.0013C4.31808 15.0013 1.33331 12.0165 1.33331 8.33464C1.33331 4.65274 4.31808 1.66797 7.99998 1.66797C11.6819 1.66797 14.6666 4.65274 14.6666 8.33464Z" stroke="#6A6A6A" stroke-width="1.33333" stroke-linecap="round" stroke-linejoin="round"/>
</svg>
