<svg width="18" height="18" viewBox="0 0 18 18" fill="none"
  xmlns="http://www.w3.org/2000/svg">
  <path d="M2.25 9.2743L3.75 7.87339M3.75 7.87339L9 2.97021L14.25 7.87339M3.75 7.87339V14.8779C3.75 15.2648 4.08579 15.5784 4.5 15.5784H6.75M14.25 7.87339L15.75 9.2743M14.25 7.87339V14.8779C14.25 15.2648 13.9142 15.5784 13.5 15.5784H11.25M6.75 15.5784C7.16421 15.5784 7.5 15.2648 7.5 14.8779V12.0761C7.5 11.6893 7.83579 11.3757 8.25 11.3757H9.75C10.1642 11.3757 10.5 11.6893 10.5 12.0761V14.8779C10.5 15.2648 10.8358 15.5784 11.25 15.5784M6.75 15.5784H11.25" stroke="white" stroke-width="1.2" stroke-linecap="round" stroke-linejoin="round"/>
</svg>
