<svg width="24" height="24" viewBox="0 0 24 24" fill="none"
  xmlns="http://www.w3.org/2000/svg">
  <path d="M2 12.0005L4.14147 10.0005M4.14147 10.0005L11.6366 3.00049L19.1317 10.0005M4.14147 10.0005V20.0005C4.14147 20.5528 4.62085 21.0005 5.2122 21.0005H8.4244M19.1317 10.0005L21.2732 12.0005M19.1317 10.0005V20.0005C19.1317 20.5528 18.6524 21.0005 18.061 21.0005H14.8488M8.4244 21.0005C9.01575 21.0005 9.49514 20.5528 9.49514 20.0005V16.0005C9.49514 15.4482 9.97452 15.0005 10.5659 15.0005H12.7073C13.2987 15.0005 13.7781 15.4482 13.7781 16.0005V20.0005C13.7781 20.5528 14.2575 21.0005 14.8488 21.0005M8.4244 21.0005H14.8488" stroke="#9747FF" stroke-width="1.5" stroke-linecap="round" stroke-linejoin="round"/>
</svg>
