<svg width="15" height="17" viewBox="0 0 15 17" fill="none"
  xmlns="http://www.w3.org/2000/svg">
  <path d="M13.6275 7.41984C13.6275 10.8145 9.86169 14.3498 8.59712 15.4417C8.47932 15.5303 8.33591 15.5782 8.18852 15.5782C8.04112 15.5782 7.89772 15.5303 7.77991 15.4417C6.51534 14.3498 2.74951 10.8145 2.74951 7.41984C2.74951 5.97733 3.32255 4.59389 4.34256 3.57388C5.36257 2.55387 6.746 1.98083 8.18852 1.98083C9.63103 1.98083 11.0145 2.55387 12.0345 3.57388C13.0545 4.59389 13.6275 5.97733 13.6275 7.41984Z" stroke="#6A6A6A" stroke-opacity="0.5" stroke-width="2" stroke-linecap="round" stroke-linejoin="round"/>
  <path d="M8.18852 9.45947C9.31497 9.45947 10.2281 8.5463 10.2281 7.41984C10.2281 6.29339 9.31497 5.38021 8.18852 5.38021C7.06206 5.38021 6.14889 6.29339 6.14889 7.41984C6.14889 8.5463 7.06206 9.45947 8.18852 9.45947Z" stroke="#6A6A6A" stroke-opacity="0.5" stroke-width="2" stroke-linecap="round" stroke-linejoin="round"/>
</svg>
