<svg width="55" height="55" viewBox="0 0 55 55" fill="none"
  xmlns="http://www.w3.org/2000/svg">
  <path d="M13.2918 25.8955L4.5835 50.4163L29.1043 41.7309M9.16683 6.87467H9.18975M50.4168 18.333H50.4397M34.3752 4.58301H34.3981M50.4168 45.833H50.4397M50.4168 4.58301L45.2835 6.30176C43.8223 6.78848 42.5755 7.7676 41.7562 9.07175C40.9369 10.3759 40.5961 11.9241 40.7918 13.4518C41.021 15.4226 39.4856 17.1872 37.4689 17.1872H36.5981C34.6272 17.1872 32.9314 18.5622 32.5647 20.4872L32.0835 22.9163M50.4168 29.7913L48.5377 29.0351C46.5668 28.2559 44.3668 29.4934 44.0002 31.5788C43.7481 33.183 42.3502 34.3747 40.7231 34.3747H38.9585M25.2085 4.58301L25.9647 6.46217C26.7439 8.43301 25.5064 10.633 23.421 10.9997C21.8168 11.2288 20.6252 12.6497 20.6252 14.2768V16.0413M25.2085 29.7913C29.6314 34.2143 31.6939 39.3476 29.7918 41.2497C27.8897 43.1518 22.7564 41.0893 18.3335 36.6663C13.9106 32.2434 11.8481 27.1101 13.7502 25.208C15.6522 23.3059 20.7856 25.3684 25.2085 29.7913Z" stroke="#2A2A2A" stroke-width="3" stroke-linecap="round" stroke-linejoin="round"/>
</svg>
