<svg width="73" height="73" viewBox="0 0 73 73" fill="none"
  xmlns="http://www.w3.org/2000/svg">
  <path d="M9.125 21.2917V15.2083C9.125 13.5949 9.76592 12.0476 10.9068 10.9068C12.0476 9.76592 13.5949 9.125 15.2083 9.125H21.2917M51.7083 9.125H57.7917C59.4051 9.125 60.9524 9.76592 62.0932 10.9068C63.2341 12.0476 63.875 13.5949 63.875 15.2083V21.2917M63.875 51.7083V57.7917C63.875 59.4051 63.2341 60.9524 62.0932 62.0932C60.9524 63.2341 59.4051 63.875 57.7917 63.875H51.7083M21.2917 63.875H15.2083C13.5949 63.875 12.0476 63.2341 10.9068 62.0932C9.76592 60.9524 9.125 59.4051 9.125 57.7917V51.7083M48.6667 48.6667L42.8875 42.8875M45.625 36.5C45.625 41.5396 41.5396 45.625 36.5 45.625C31.4604 45.625 27.375 41.5396 27.375 36.5C27.375 31.4604 31.4604 27.375 36.5 27.375C41.5396 27.375 45.625 31.4604 45.625 36.5Z" stroke="#9734E6" stroke-width="8.90909" stroke-linecap="round" stroke-linejoin="round"/>
</svg>
