<svg width="18" height="18" viewBox="0 0 18 18" fill="none"
  xmlns="http://www.w3.org/2000/svg">
  <path d="M7.74347 3.89195C8.06327 2.66167 9.93673 2.66167 10.2565 3.89195C10.4631 4.6867 11.4381 5.06386 12.1859 4.63832C13.3435 3.97957 14.6682 5.21679 13.9629 6.29793C13.5072 6.99633 13.9111 7.90686 14.762 8.0998C16.0793 8.39848 16.0793 10.1482 14.762 10.4468C13.9111 10.6398 13.5072 11.5503 13.9629 12.2487C14.6682 13.3299 13.3435 14.5671 12.1859 13.9083C11.4381 13.4828 10.4631 13.8599 10.2565 14.6547C9.93673 15.885 8.06327 15.885 7.74347 14.6547C7.53688 13.8599 6.56194 13.4828 5.81414 13.9083C4.65653 14.5671 3.33179 13.3299 4.03714 12.2487C4.49278 11.5503 4.08895 10.6398 3.23798 10.4468C1.92067 10.1482 1.92067 8.39848 3.23798 8.0998C4.08895 7.90686 4.49278 6.99633 4.03714 6.29793C3.33179 5.21679 4.65653 3.97957 5.81414 4.63831C6.56194 5.06386 7.53688 4.6867 7.74347 3.89195Z" stroke="white" stroke-width="1.2" stroke-linecap="round" stroke-linejoin="round"/>
  <path d="M11.25 9.27333C11.25 10.4339 10.2426 11.3747 9 11.3747C7.75736 11.3747 6.75 10.4339 6.75 9.27333C6.75 8.11278 7.75736 7.17196 9 7.17196C10.2426 7.17196 11.25 8.11278 11.25 9.27333Z" stroke="white" stroke-width="1.2" stroke-linecap="round" stroke-linejoin="round"/>
</svg>
