<svg width="24" height="24" viewBox="0 0 24 24" fill="none"
  xmlns="http://www.w3.org/2000/svg">
  <path d="M9.84273 4.3178C10.2993 2.56138 12.9739 2.56139 13.4305 4.3178C13.7254 5.45242 15.1173 5.99086 16.1849 5.38334C17.8375 4.44288 19.7288 6.20919 18.7218 7.75267C18.0713 8.74974 18.6478 10.0497 19.8627 10.3251C21.7434 10.7515 21.7434 13.2495 19.8627 13.6759C18.6478 13.9513 18.0713 15.2512 18.7218 16.2483C19.7288 17.7918 17.8375 19.5581 16.1849 18.6176C15.1173 18.0101 13.7254 18.5486 13.4305 19.6832C12.9739 21.4396 10.2993 21.4396 9.84273 19.6832C9.54779 18.5486 8.15592 18.0101 7.08833 18.6176C5.43567 19.5581 3.54442 17.7918 4.5514 16.2483C5.2019 15.2512 4.62536 13.9513 3.41049 13.6759C1.52984 13.2495 1.52984 10.7515 3.41049 10.3251C4.62536 10.0497 5.2019 8.74974 4.5514 7.75267C3.54442 6.20919 5.43567 4.44288 7.08833 5.38334C8.15592 5.99086 9.54779 5.45242 9.84273 4.3178Z" stroke="#9747FF" stroke-width="1.5" stroke-linecap="round" stroke-linejoin="round"/>
  <path d="M14.8488 12.0005C14.8488 13.6573 13.4107 15.0005 11.6366 15.0005C9.86256 15.0005 8.4244 13.6573 8.4244 12.0005C8.4244 10.3436 9.86256 9.00049 11.6366 9.00049C13.4107 9.00049 14.8488 10.3436 14.8488 12.0005Z" stroke="#9747FF" stroke-width="1.5" stroke-linecap="round" stroke-linejoin="round"/>
</svg>
