<svg width="18" height="18" viewBox="0 0 18 18" fill="none"
  xmlns="http://www.w3.org/2000/svg">
  <path d="M9 2.24919H3.75C3.35218 2.24919 2.97064 2.40723 2.68934 2.68853C2.40804 2.96984 2.25 3.35137 2.25 3.74919V14.2492C2.25 14.647 2.40804 15.0285 2.68934 15.3099C2.97064 15.5912 3.35218 15.7492 3.75 15.7492H14.25C14.6478 15.7492 15.0294 15.5912 15.3107 15.3099C15.592 15.0285 15.75 14.647 15.75 14.2492V8.99919M13.7812 1.96794C14.0796 1.66957 14.4843 1.50195 14.9062 1.50195C15.3282 1.50195 15.7329 1.66957 16.0312 1.96794C16.3296 2.26631 16.4972 2.67099 16.4972 3.09294C16.4972 3.5149 16.3296 3.91957 16.0312 4.21794L9.2715 10.9784C9.09341 11.1564 8.8734 11.2866 8.63175 11.3572L6.477 11.9872C6.41246 12.006 6.34405 12.0071 6.27893 11.9905C6.21381 11.9738 6.15437 11.9399 6.10683 11.8924C6.0593 11.8448 6.02542 11.7854 6.00873 11.7203C5.99205 11.6551 5.99318 11.5867 6.012 11.5222L6.642 9.36744C6.71289 9.12598 6.8434 8.90624 7.0215 8.72844L13.7812 1.96794Z" stroke="#9747FF" stroke-width="2" stroke-linecap="round" stroke-linejoin="round"/>
</svg>
