<svg width="16" height="16" viewBox="0 0 16 16" fill="none"
  xmlns="http://www.w3.org/2000/svg">
  <path d="M6.66666 1.33301H9.33332M7.99999 9.33301V6.66634M2.66666 8.66634C2.8299 7.37032 3.4631 6.17928 4.44616 5.3191C5.42922 4.45892 6.69377 3.98943 7.99999 3.99967C8.86269 4.00059 9.71229 4.21077 10.4759 4.61218C11.2395 5.01359 11.8944 5.59425 12.3843 6.30436C12.8742 7.01446 13.1845 7.8328 13.2887 8.68919C13.3928 9.54558 13.2876 10.4145 12.9822 11.2213C12.6768 12.0281 12.1802 12.7488 11.535 13.3215C10.8898 13.8942 10.1154 14.3019 9.27803 14.5095C8.4407 14.7172 7.56549 14.7186 6.72748 14.5137C5.88947 14.3088 5.11368 13.9036 4.46666 13.333L2.66666 11.733M5.99999 11.333H2.66666V14.6663" stroke="#9747FF" stroke-width="2" stroke-linecap="round" stroke-linejoin="round"/>
</svg>
