<svg width="18" height="17" viewBox="0 0 18 17" fill="none"
  xmlns="http://www.w3.org/2000/svg">
  <path d="M12.1098 15.3111V13.7231C12.1098 12.8808 11.7752 12.073 11.1795 11.4773C10.5839 10.8817 9.77608 10.5471 8.93374 10.5471H4.16969C3.32735 10.5471 2.51951 10.8817 1.92389 11.4773C1.32827 12.073 0.993652 12.8808 0.993652 13.7231V15.3111M12.1098 1.12062C12.7908 1.29718 13.394 1.69489 13.8246 2.25133C14.2552 2.80777 14.4888 3.49144 14.4888 4.19502C14.4888 4.8986 14.2552 5.58226 13.8246 6.1387C13.394 6.69514 12.7908 7.09286 12.1098 7.26942M16.8738 15.3111V13.7231C16.8733 13.0194 16.6391 12.3358 16.208 11.7796C15.7768 11.2235 15.1732 10.8262 14.4918 10.6503M9.72775 4.19502C9.72775 5.9491 8.30579 7.37106 6.55172 7.37106C4.79764 7.37106 3.37568 5.9491 3.37568 4.19502C3.37568 2.44094 4.79764 1.01898 6.55172 1.01898C8.30579 1.01898 9.72775 2.44094 9.72775 4.19502Z" stroke="#6A6A6A" stroke-opacity="0.5" stroke-width="2" stroke-linecap="round" stroke-linejoin="round"/>
</svg>
