<svg width="55" height="55" viewBox="0 0 55 55" fill="none"
  xmlns="http://www.w3.org/2000/svg">
  <path d="M36.6668 25.2083L41.2502 29.7917L50.4168 20.625M36.6668 48.125V43.5417C36.6668 41.1105 35.7011 38.7789 33.982 37.0599C32.2629 35.3408 29.9313 34.375 27.5002 34.375H13.7502C11.319 34.375 8.98743 35.3408 7.26835 37.0599C5.54927 38.7789 4.5835 41.1105 4.5835 43.5417V48.125M29.7918 16.0417C29.7918 21.1043 25.6878 25.2083 20.6252 25.2083C15.5626 25.2083 11.4585 21.1043 11.4585 16.0417C11.4585 10.9791 15.5626 6.875 20.6252 6.875C25.6878 6.875 29.7918 10.9791 29.7918 16.0417Z" stroke="#2A2A2A" stroke-width="3" stroke-linecap="round" stroke-linejoin="round"/>
</svg>
