<svg width="36" height="37" viewBox="0 0 36 37" fill="none"
  xmlns="http://www.w3.org/2000/svg">
  <g clip-path="url(#clip0_1_738)">
    <path d="M6.00023 21.665C5.71638 21.666 5.43808 21.5864 5.19766 21.4355C4.95725 21.2846 4.76458 21.0686 4.64206 20.8125C4.51953 20.5565 4.47217 20.2709 4.50548 19.989C4.53879 19.7071 4.6514 19.4405 4.83023 19.22L19.6802 3.92004C19.7916 3.79146 19.9434 3.70457 20.1107 3.67364C20.278 3.6427 20.4508 3.66956 20.6008 3.7498C20.7508 3.83003 20.8691 3.95888 20.9362 4.1152C21.0034 4.27152 21.0153 4.44601 20.9702 4.61004L18.0902 13.64C18.0053 13.8673 17.9768 14.1118 18.0071 14.3526C18.0374 14.5933 18.1257 14.8231 18.2644 15.0222C18.403 15.2213 18.5879 15.3838 18.8031 15.4958C19.0184 15.6077 19.2576 15.6658 19.5002 15.665H30.0002C30.2841 15.6641 30.5624 15.7437 30.8028 15.8946C31.0432 16.0455 31.2359 16.2615 31.3584 16.5176C31.4809 16.7736 31.5283 17.0592 31.495 17.3411C31.4617 17.6229 31.3491 17.8896 31.1702 18.11L16.3202 33.41C16.2088 33.5386 16.057 33.6255 15.8898 33.6564C15.7225 33.6874 15.5496 33.6605 15.3996 33.5803C15.2496 33.5 15.1314 33.3712 15.0642 33.2149C14.9971 33.0586 14.9851 32.8841 15.0302 32.72L17.9102 23.69C17.9952 23.4628 18.0237 23.2183 17.9933 22.9775C17.963 22.7368 17.8747 22.507 17.7361 22.3079C17.5975 22.1088 17.4126 21.9463 17.1973 21.8343C16.9821 21.7223 16.7429 21.6643 16.5002 21.665H6.00023Z" stroke="#9747FF" stroke-width="3" stroke-linecap="round" stroke-linejoin="round"/>
  </g>
  <defs>
    <clipPath id="clip0_1_738">
      <rect width="36" height="36" fill="white" transform="translate(0 0.665039)"/>
    </clipPath>
  </defs>
</svg>
