<svg width="24" height="25" viewBox="0 0 24 25" fill="none"
  xmlns="http://www.w3.org/2000/svg">
  <path d="M4.00303 13.1296C3.81387 13.1302 3.6284 13.0824 3.46819 12.9919C3.30797 12.9014 3.17958 12.7718 3.09792 12.6182C3.01627 12.4646 2.98471 12.2934 3.00691 12.1243C3.02911 11.9552 3.10415 11.7952 3.22333 11.663L13.1196 2.48538C13.1938 2.40826 13.295 2.35614 13.4064 2.33758C13.5179 2.31902 13.6331 2.33513 13.7331 2.38326C13.833 2.43139 13.9119 2.50868 13.9566 2.60245C14.0013 2.69621 14.0093 2.80088 13.9792 2.89927L12.06 8.31586C12.0034 8.4522 11.9844 8.59886 12.0046 8.74326C12.0248 8.88766 12.0836 9.02549 12.176 9.14493C12.2684 9.26437 12.3916 9.36185 12.5351 9.42902C12.6785 9.49618 12.8379 9.53102 12.9996 9.53055H19.997C20.1861 9.52997 20.3716 9.57771 20.5318 9.66823C20.692 9.75875 20.8204 9.88833 20.9021 10.0419C20.9837 10.1955 21.0153 10.3668 20.9931 10.5359C20.9709 10.705 20.8958 10.8649 20.7767 10.9972L10.8804 20.1748C10.8062 20.2519 10.705 20.304 10.5936 20.3226C10.4821 20.3411 10.3669 20.325 10.2669 20.2769C10.167 20.2288 10.0881 20.1515 10.0434 20.0577C9.99867 19.9639 9.99068 19.8593 10.0208 19.7609L11.94 14.3443C11.9966 14.208 12.0156 14.0613 11.9954 13.9169C11.9752 13.7725 11.9164 13.6347 11.824 13.5152C11.7316 13.3958 11.6084 13.2983 11.4649 13.2311C11.3215 13.164 11.1621 13.1291 11.0004 13.1296H4.00303Z" stroke="white" stroke-width="2" stroke-linecap="round" stroke-linejoin="round"/>
</svg>
