<svg width="48" height="48" viewBox="0 0 48 48" fill="none" xmlns="http://www.w3.org/2000/svg">
<path d="M16.2775 28.493V23.0998C16.2775 22.4456 15.748 21.9152 15.095 21.9152C14.4419 21.9152 13.9125 22.4456 13.9125 23.0998V28.493C13.9125 33.7271 17.9124 38.1826 23.0991 38.1826C28.2181 38.1826 32.2953 33.9006 32.3586 28.6931L32.3594 28.57V26.9921C32.3594 26.3379 31.83 25.8076 31.1769 25.8076C30.534 25.8076 30.011 26.3215 29.9948 26.9615L29.9944 26.9921V28.57L29.9939 28.6647C29.9455 32.6662 26.8329 35.8135 23.0991 35.8136C19.3631 35.8136 16.2775 32.5683 16.2775 28.493Z" fill="#111111"/>
<path d="M32.3594 32.6093V16.5298C32.3594 15.8756 31.83 15.3453 31.1769 15.3453C30.5238 15.3453 29.9944 15.8756 29.9944 16.5298V32.6093C29.9944 37.4266 25.6007 42.131 20.1797 42.131C14.7488 42.131 10.365 37.5575 10.365 32.6093V28.6275C10.365 27.9733 9.83557 27.443 9.1825 27.443C8.52942 27.443 8 27.9733 8 28.6275V32.6093C8.00002 38.8867 13.4635 44.5 20.1797 44.5C26.9058 44.5 32.3594 38.7361 32.3594 32.6093Z" fill="#111111"/>
<path d="M22.1111 25.5478C22.1111 23.3671 23.8758 21.5994 26.0528 21.5994C28.2297 21.5994 29.9944 23.3671 29.9944 25.5478C29.9944 27.7284 28.2297 29.4961 26.0528 29.4961V31.8652C29.5358 31.8652 32.3594 29.0368 32.3594 25.5478C32.3594 22.0587 29.5358 19.2303 26.0528 19.2303C22.5697 19.2303 19.7461 22.0587 19.7461 25.5478C19.7461 29.0368 22.5697 31.8652 26.0528 31.8652V29.4961C23.8758 29.4961 22.1111 27.7284 22.1111 25.5478Z" fill="#111111"/>
<path d="M16.6716 15.7558C16.6716 16.628 15.9657 17.3351 15.095 17.3351C14.2242 17.3351 13.5183 16.628 13.5183 15.7558C13.5183 14.8835 14.2242 14.1764 15.095 14.1764C15.9657 14.1764 16.6716 14.8835 16.6716 15.7558Z" fill="#111111"/>
<path fill-rule="evenodd" clip-rule="evenodd" d="M30.9474 3.54949C31.0885 3.4834 31.2643 3.48361 31.4055 3.54949C31.424 3.55812 31.4418 3.56793 31.459 3.57881C31.554 3.63912 31.6262 3.73405 31.649 3.86377C31.7886 4.65754 31.9392 5.36734 32.1091 6.00429C32.1238 6.0592 32.1375 6.11386 32.1524 6.16769C32.1687 6.22617 32.1865 6.28362 32.2031 6.34085C32.2256 6.4182 32.247 6.49483 32.2703 6.56991C32.3006 6.66788 32.3319 6.76381 32.3635 6.858C32.3733 6.8872 32.3829 6.91633 32.3928 6.94517C32.4229 7.03247 32.4543 7.11789 32.4857 7.20199C32.5192 7.29178 32.5528 7.38 32.5879 7.46623C32.6242 7.55547 32.6618 7.6426 32.6999 7.72813C32.711 7.753 32.7218 7.77783 32.7331 7.8024C32.7419 7.8218 32.751 7.84103 32.76 7.86025C32.7999 7.94574 32.8406 8.02942 32.8825 8.1112C32.9004 8.14612 32.9189 8.18053 32.9372 8.21479C32.945 8.22952 32.9526 8.24435 32.9606 8.25896C32.9748 8.28524 32.9894 8.31124 33.0039 8.33714C33.018 8.36231 33.0321 8.38738 33.0464 8.41219C33.0621 8.43929 33.0781 8.46604 33.094 8.49271C33.1054 8.51167 33.1165 8.53065 33.128 8.54939C33.142 8.57227 33.1563 8.59485 33.1705 8.61741C33.1871 8.64366 33.2036 8.66976 33.2205 8.69558C33.2322 8.71357 33.2441 8.73136 33.256 8.74914C33.2734 8.7752 33.2906 8.80129 33.3083 8.82692C33.3207 8.84486 33.3336 8.86236 33.3461 8.88009C33.365 8.90682 33.3838 8.93357 33.4031 8.95983C33.4183 8.98048 33.4337 9.00083 33.4491 9.0212C33.4632 9.03976 33.4771 9.05838 33.4913 9.0767C33.5106 9.10163 33.5305 9.12609 33.5502 9.15058C33.5646 9.16849 33.5789 9.18646 33.5935 9.20413C33.6092 9.2231 33.6252 9.24172 33.6411 9.26042C33.66 9.28261 33.6789 9.30467 33.6981 9.32648C33.7128 9.34326 33.7276 9.35996 33.7426 9.37652C33.7626 9.3987 33.7827 9.42077 33.8031 9.44258C33.818 9.4586 33.8332 9.47444 33.8483 9.49027C33.8677 9.51049 33.8872 9.53057 33.9069 9.55046C33.9307 9.57455 33.9548 9.59838 33.9791 9.622C33.9892 9.63181 33.9993 9.64158 34.0095 9.65132C34.0353 9.676 34.0616 9.70024 34.0879 9.72441C34.1022 9.73749 34.1164 9.75057 34.1309 9.7635C34.154 9.78423 34.1772 9.8049 34.2007 9.82526C34.2152 9.83782 34.2297 9.85037 34.2444 9.86279C34.2716 9.88581 34.2994 9.90825 34.3271 9.9308C34.3405 9.94165 34.3539 9.95251 34.3673 9.96325C34.3909 9.98205 34.4147 10.0007 34.4387 10.0191C34.4584 10.0343 34.4781 10.0496 34.4981 10.0645C34.5225 10.0828 34.5473 10.1008 34.5722 10.1188C34.5884 10.1305 34.6046 10.1421 34.621 10.1536C34.6474 10.1723 34.6741 10.1908 34.701 10.2091C34.7194 10.2217 34.7378 10.2343 34.7564 10.2466C34.7812 10.2632 34.8065 10.2793 34.8317 10.2955C34.8543 10.31 34.877 10.3246 34.9 10.3389C34.9218 10.3525 34.9438 10.3661 34.9659 10.3795C34.9884 10.3932 35.0111 10.4064 35.0338 10.4198C35.0615 10.4361 35.0893 10.4523 35.1173 10.4683C35.1385 10.4804 35.1599 10.4923 35.1813 10.5042C35.2052 10.5175 35.2293 10.5306 35.2535 10.5437C35.2794 10.5577 35.3053 10.5718 35.3316 10.5855C35.3582 10.5995 35.385 10.6133 35.412 10.627C35.434 10.6381 35.4561 10.6492 35.4783 10.6602C35.5077 10.6748 35.5374 10.6893 35.5673 10.7036C35.5916 10.7152 35.6161 10.7265 35.6406 10.738C35.6688 10.7511 35.6971 10.7642 35.7257 10.7771C35.7455 10.786 35.7654 10.7948 35.7854 10.8037C35.8241 10.8208 35.8631 10.8377 35.9025 10.8545C35.9204 10.8621 35.9383 10.8696 35.9563 10.8772C35.9887 10.8907 36.0214 10.9041 36.0543 10.9174C36.0862 10.9303 36.1183 10.9431 36.1507 10.9557C36.1737 10.9647 36.1969 10.9734 36.2201 10.9823C36.2506 10.994 36.2813 11.0056 36.3122 11.0171C36.3445 11.0291 36.377 11.0409 36.4098 11.0527C36.4393 11.0633 36.4689 11.0739 36.4987 11.0843C36.5246 11.0934 36.5506 11.1024 36.5768 11.1113C36.6114 11.1231 36.6463 11.1348 36.6814 11.1465C36.7179 11.1586 36.7547 11.1709 36.7918 11.1828C36.8044 11.1869 36.817 11.1905 36.8297 11.1946C36.9101 11.2201 36.9921 11.2442 37.0751 11.2688C37.1376 11.2874 37.2007 11.3062 37.2648 11.3243C37.3331 11.3436 37.4023 11.3622 37.4724 11.381C37.5391 11.3989 37.6065 11.4171 37.6749 11.4346C37.7506 11.4539 37.8274 11.4724 37.9051 11.4912C37.9714 11.5073 38.0383 11.524 38.1061 11.5397C38.1896 11.559 38.2743 11.5776 38.3601 11.5964C38.4287 11.6115 38.498 11.6266 38.5681 11.6413C38.6448 11.6575 38.7225 11.6732 38.8011 11.689C38.8844 11.7058 38.9686 11.723 39.0539 11.7395C39.1368 11.7554 39.2208 11.7711 39.3056 11.7868C39.3586 11.7965 39.4119 11.8072 39.4656 11.8169L39.6365 11.8473L39.6806 11.8571C40.078 11.9682 40.1046 12.5757 39.7603 12.753C39.7233 12.7721 39.682 12.7861 39.6365 12.7941C39.5791 12.8042 39.5222 12.8144 39.4656 12.8246C39.4119 12.8343 39.3586 12.8445 39.3056 12.8543C39.2189 12.8703 39.1332 12.8864 39.0485 12.9028C38.9786 12.9162 38.9094 12.9301 38.8409 12.9438C38.7402 12.964 38.6409 12.9841 38.5431 13.0048C38.4907 13.0159 38.4387 13.0275 38.387 13.0388C38.2905 13.0599 38.1954 13.0808 38.1018 13.1025C38.046 13.1154 37.9908 13.1288 37.9359 13.142C37.8401 13.165 37.7458 13.1882 37.653 13.2119C37.6099 13.223 37.5672 13.2347 37.5247 13.246C37.4313 13.2706 37.3394 13.295 37.2492 13.3206C37.1914 13.337 37.1344 13.3543 37.0778 13.371C37.0015 13.3937 36.926 13.4157 36.8519 13.4391C36.8205 13.449 36.7893 13.4591 36.7582 13.4692C36.7329 13.4774 36.7076 13.4855 36.6825 13.4938C36.6558 13.5026 36.6294 13.5118 36.6029 13.5208C36.5579 13.536 36.5133 13.5513 36.4691 13.5669C36.4533 13.5725 36.4376 13.5781 36.4219 13.5837C36.3809 13.5984 36.3404 13.6133 36.3001 13.6282C36.2822 13.6349 36.2644 13.6415 36.2467 13.6482C36.2062 13.6635 36.1662 13.6791 36.1265 13.6947C36.1052 13.7031 36.084 13.7116 36.0629 13.7201C36.027 13.7345 35.9916 13.7492 35.9563 13.7639C35.9362 13.7723 35.9162 13.7808 35.8962 13.7893C35.8643 13.8029 35.8325 13.8165 35.801 13.8303C35.7777 13.8406 35.7546 13.8508 35.7316 13.8612C35.6962 13.8772 35.661 13.893 35.6262 13.9093C35.6097 13.917 35.5934 13.925 35.577 13.9328C35.5412 13.9498 35.5057 13.9669 35.4705 13.9844C35.4568 13.9912 35.4432 13.9982 35.4295 14.0051C35.3894 14.0253 35.3498 14.0457 35.3105 14.0664C35.3009 14.0715 35.2912 14.0766 35.2816 14.0817C35.196 14.1274 35.1123 14.1742 35.0307 14.2224C35.0114 14.2338 34.9924 14.2456 34.9734 14.2572C34.9451 14.2743 34.9169 14.2914 34.8891 14.3088C34.8727 14.3191 34.8565 14.3297 34.8403 14.3401C34.8143 14.3567 34.7886 14.3736 34.763 14.3905C34.7399 14.4058 34.7168 14.421 34.694 14.4366C34.6736 14.4505 34.6532 14.4643 34.6331 14.4784C34.6071 14.4967 34.5814 14.5153 34.5558 14.5339C34.5373 14.5474 34.519 14.561 34.5008 14.5746C34.4799 14.5902 34.4593 14.6061 34.4387 14.6219C34.4147 14.6404 34.3909 14.659 34.3673 14.6778C34.3539 14.6885 34.3405 14.6994 34.3271 14.7102C34.2983 14.7337 34.2695 14.7571 34.2413 14.781C34.2317 14.7891 34.2223 14.7974 34.2128 14.8056C34.1823 14.8318 34.1521 14.8581 34.1223 14.885C34.1137 14.8927 34.1054 14.9007 34.0969 14.9084C34.0675 14.9353 34.0382 14.9622 34.0095 14.9897C33.9993 14.9995 33.9892 15.0092 33.9791 15.019C33.9542 15.0432 33.9293 15.0675 33.9049 15.0921C33.89 15.1072 33.8755 15.1226 33.8608 15.1379C33.8383 15.1613 33.8158 15.1848 33.7937 15.2086C33.7814 15.2219 33.7692 15.2351 33.757 15.2485C33.7371 15.2704 33.7173 15.2923 33.6977 15.3146C33.6769 15.3382 33.6565 15.3624 33.6361 15.3865C33.6223 15.4027 33.6083 15.4189 33.5947 15.4353C33.5797 15.4535 33.565 15.472 33.5502 15.4905C33.5305 15.515 33.5106 15.5394 33.4913 15.5643C33.4771 15.5827 33.4632 15.6013 33.4491 15.6198C33.4335 15.6406 33.4178 15.6614 33.4023 15.6824C33.3866 15.7038 33.371 15.7255 33.3555 15.7473C33.338 15.7719 33.3204 15.7965 33.3032 15.8215C33.2895 15.8414 33.2765 15.8617 33.263 15.8817C33.2488 15.9029 33.2344 15.924 33.2205 15.9455C33.2014 15.9747 33.1826 16.0044 33.1639 16.0342C33.1535 16.0507 33.1429 16.0671 33.1327 16.0838C33.1209 16.103 33.1095 16.1223 33.0979 16.1417C33.051 16.22 33.0051 16.3 32.9606 16.3821C32.9494 16.4027 32.9384 16.4234 32.9274 16.4442C32.9138 16.4699 32.9002 16.4956 32.8868 16.5216C32.8434 16.606 32.8012 16.6924 32.76 16.7808C32.751 16.8 32.7419 16.8192 32.7331 16.8386C32.7218 16.8632 32.711 16.888 32.6999 16.9129C32.6146 17.1045 32.5335 17.3051 32.4568 17.5157C32.4233 17.6076 32.3909 17.7014 32.3588 17.7971C32.3284 17.8882 32.2983 17.9809 32.2691 18.0754C32.2492 18.1398 32.2307 18.2053 32.2113 18.2713C32.1918 18.3379 32.1714 18.405 32.1524 18.4734C32.1352 18.5353 32.1193 18.5983 32.1025 18.6618C31.9352 19.2924 31.7868 19.9941 31.649 20.7777C31.5637 21.2625 30.79 21.2625 30.7047 20.7777C29.9421 16.4423 28.8851 14.6032 25.8113 13.5411C24.9506 13.2437 23.9318 13.0074 22.7172 12.7941C22.5809 12.7701 22.4829 12.6915 22.4233 12.5889C22.2843 12.3495 22.3539 11.9798 22.6321 11.8708C22.6585 11.8604 22.6869 11.8527 22.7172 11.8473L22.9747 11.8012C23.019 11.7931 23.0628 11.784 23.1066 11.7758C23.1802 11.7621 23.253 11.7483 23.3251 11.7344C23.4197 11.7161 23.5129 11.6976 23.6049 11.6789C23.6726 11.6651 23.7396 11.6511 23.8059 11.637C23.8885 11.6196 23.97 11.6018 24.0506 11.5839C24.1273 11.5668 24.2032 11.5497 24.2781 11.5323C24.3502 11.5155 24.4215 11.4983 24.4919 11.4811C24.5606 11.4643 24.6285 11.4475 24.6956 11.4303C24.7771 11.4094 24.8572 11.3877 24.9364 11.3662C24.9931 11.3507 25.0494 11.3354 25.1049 11.3196C25.1797 11.2985 25.2532 11.2766 25.3258 11.2548C25.4025 11.2317 25.4785 11.2094 25.5529 11.1856C25.574 11.1788 25.5949 11.172 25.6158 11.1652C25.6342 11.1592 25.6525 11.1529 25.6708 11.1469C25.7131 11.1328 25.7552 11.119 25.7968 11.1047C25.8139 11.0988 25.8309 11.0926 25.8479 11.0867C25.8932 11.0708 25.9382 11.0552 25.9826 11.039C25.9976 11.0335 26.0125 11.0281 26.0274 11.0226C26.0737 11.0055 26.1195 10.9881 26.1648 10.9706C26.1762 10.9662 26.1874 10.9617 26.1987 10.9573C26.2389 10.9416 26.2787 10.926 26.3182 10.91C26.3551 10.895 26.3915 10.8795 26.4278 10.8643C26.4447 10.8571 26.4618 10.8503 26.4785 10.8431C26.5159 10.8271 26.5527 10.8106 26.5894 10.7943C26.6092 10.7854 26.629 10.7766 26.6487 10.7677C26.6708 10.7576 26.6928 10.7474 26.7146 10.7372C26.7501 10.7207 26.7855 10.7045 26.8204 10.6876C26.8375 10.6792 26.8545 10.6706 26.8715 10.6622C26.9031 10.6465 26.9345 10.6308 26.9655 10.6149C26.9889 10.6029 27.012 10.5906 27.035 10.5785C27.0645 10.563 27.0938 10.5474 27.1228 10.5316C27.1351 10.5249 27.1473 10.518 27.1595 10.5113C27.1995 10.4891 27.2394 10.4671 27.2785 10.4444C27.2849 10.4407 27.2912 10.4368 27.2976 10.4331C27.3367 10.4103 27.3754 10.3873 27.4135 10.3639C27.4291 10.3544 27.4445 10.3446 27.46 10.335C27.485 10.3193 27.5099 10.3036 27.5345 10.2877C27.5665 10.267 27.598 10.2459 27.6293 10.2248C27.6391 10.2182 27.6489 10.2118 27.6586 10.2052C27.6889 10.1845 27.7187 10.1634 27.7483 10.1423C27.7653 10.1302 27.7823 10.1182 27.7991 10.1059C27.8216 10.0895 27.844 10.073 27.8662 10.0563C27.8901 10.0383 27.9137 10.0202 27.9372 10.0019C27.9516 9.99078 27.9659 9.97962 27.9801 9.96833C28.006 9.9478 28.0316 9.9271 28.057 9.90618C28.0741 9.89211 28.0909 9.87782 28.1077 9.86357C28.1319 9.84315 28.1558 9.8226 28.1795 9.80181C28.1929 9.79012 28.2061 9.77843 28.2193 9.76663C28.2428 9.74559 28.2661 9.72434 28.2892 9.70291C28.3107 9.68297 28.3321 9.663 28.3532 9.64271C28.3662 9.63021 28.3789 9.61743 28.3918 9.6048C28.4129 9.58417 28.4336 9.56324 28.4543 9.54226C28.4761 9.52009 28.498 9.49798 28.5194 9.47541C28.5295 9.4648 28.5395 9.45407 28.5495 9.44336C28.5754 9.41564 28.601 9.38765 28.6263 9.35932C28.6365 9.34791 28.6467 9.33643 28.6568 9.32492C28.6801 9.29832 28.7034 9.27154 28.7262 9.2444C28.7374 9.23119 28.7484 9.21786 28.7594 9.20453C28.7798 9.17988 28.7999 9.15496 28.8199 9.12987C28.8373 9.10808 28.8547 9.08632 28.8718 9.0642C28.8844 9.04781 28.8968 9.03113 28.9093 9.01455C28.9284 8.98919 28.9475 8.96374 28.9662 8.93794C28.9786 8.9209 28.9907 8.90358 29.0029 8.88634C29.0214 8.86028 29.0402 8.83429 29.0583 8.80777C29.0719 8.78791 29.0851 8.76769 29.0985 8.74757C29.1127 8.72635 29.1267 8.70498 29.1407 8.68347C29.1571 8.65814 29.1733 8.63259 29.1894 8.60685C29.2014 8.58776 29.2135 8.56871 29.2253 8.54939C29.2422 8.52179 29.2587 8.49381 29.2753 8.46574C29.2865 8.44673 29.2981 8.42789 29.3092 8.40867C29.3293 8.37389 29.3489 8.33863 29.3685 8.30313C29.3746 8.29223 29.3805 8.28126 29.3865 8.27029C29.4014 8.24304 29.416 8.2155 29.4306 8.18782C29.4475 8.15587 29.4644 8.12378 29.4809 8.09127C29.4877 8.07805 29.4942 8.0647 29.5008 8.05139C29.517 8.01906 29.5333 7.98657 29.5492 7.95367C29.5621 7.92708 29.5744 7.90012 29.5871 7.87315C29.6005 7.84463 29.6141 7.81609 29.6273 7.78715C29.6387 7.76193 29.6499 7.73647 29.6612 7.71093C29.6739 7.68226 29.687 7.65362 29.6995 7.62454C29.7087 7.6031 29.7173 7.58132 29.7264 7.55965C29.7639 7.47031 29.8011 7.37928 29.8368 7.28603C29.8733 7.19082 29.9086 7.09343 29.9434 6.99403C29.9495 6.9765 29.9556 6.95892 29.9617 6.94126C29.9735 6.90702 29.9848 6.87242 29.9964 6.83768C30.0276 6.74436 30.0583 6.64932 30.0881 6.55232C30.0983 6.51925 30.1077 6.48576 30.1178 6.45226C30.2235 6.09947 30.3223 5.7228 30.4144 5.31945C30.4597 5.12065 30.5027 4.91526 30.5455 4.70341C30.5998 4.43435 30.6535 4.1548 30.7047 3.86377C30.7275 3.73419 30.7995 3.63913 30.8943 3.57881C30.9114 3.56798 30.929 3.55809 30.9474 3.54949ZM31.1769 9.89171C30.8688 10.3795 30.513 10.8327 30.0979 11.2477C29.6853 11.6602 29.235 12.0141 28.7504 12.3207C29.235 12.6273 29.6853 12.9812 30.0979 13.3937C30.513 13.8087 30.8688 14.2619 31.1769 14.7497C31.4849 14.2619 31.8407 13.8087 32.2558 13.3937C32.6685 12.9812 33.1191 12.6273 33.6037 12.3207C33.119 12.0141 32.6685 11.6602 32.2558 11.2477C31.8407 10.8327 31.4849 10.3795 31.1769 9.89171Z" fill="#111111"/>
</svg>
