<svg width="277" height="120" viewBox="0 0 277 120" fill="none" xmlns="http://www.w3.org/2000/svg">
<path d="M27.5756 71.9277V57.5839C27.5756 55.844 26.1633 54.4335 24.4212 54.4335C22.6791 54.4335 21.2669 55.844 21.2669 57.5839V71.9277C21.2669 85.8481 31.9369 97.6979 45.7723 97.6979C59.4273 97.6979 70.3034 86.3096 70.4725 72.4599L70.4745 72.1324V67.9358C70.4745 66.196 69.0622 64.7855 67.3202 64.7855C65.6053 64.7855 64.21 66.1523 64.1669 67.8546L64.1658 67.9358V72.1324L64.1644 72.3842C64.0352 83.0266 55.7325 91.3973 45.7723 91.3973C35.8067 91.3973 27.5756 82.7664 27.5756 71.9277Z" fill="#111111"/>
<path d="M70.4745 82.8752V40.1106C70.4745 38.3707 69.0623 36.9603 67.3202 36.9603C65.5781 36.9603 64.1658 38.3707 64.1658 40.1106V82.8752C64.1658 95.6874 52.4456 108.199 37.9849 108.199C23.4977 108.199 11.804 96.0355 11.8039 82.8752V72.2854C11.8039 70.5455 10.3917 69.1351 8.64957 69.1351C6.90748 69.1351 5.49524 70.5455 5.49524 72.2854V82.8752C5.49529 99.5706 20.0692 114.5 37.9849 114.5C55.9269 114.5 70.4744 99.17 70.4745 82.8752Z" fill="#111111"/>
<path d="M43.137 64.0945C43.137 58.2949 47.8444 53.5935 53.6514 53.5935C59.4584 53.5935 64.1658 58.2949 64.1658 64.0945C64.1658 69.8941 59.4584 74.5956 53.6514 74.5956V80.8962C62.9425 80.8962 70.4745 73.3739 70.4745 64.0945C70.4745 54.8152 62.9425 47.2928 53.6514 47.2928C44.3602 47.2928 36.8283 54.8152 36.8283 64.0945C36.8283 73.3739 44.3602 80.8962 53.6514 80.8962V74.5956C47.8444 74.5956 43.137 69.8941 43.137 64.0945Z" fill="#111111"/>
<path d="M28.627 38.0519C28.627 40.3717 26.744 42.2523 24.4212 42.2523C22.0984 42.2523 20.2154 40.3717 20.2154 38.0519C20.2154 35.732 22.0984 33.8514 24.4212 33.8514C26.744 33.8514 28.627 35.732 28.627 38.0519Z" fill="#111111"/>
<path fill-rule="evenodd" clip-rule="evenodd" d="M66.7079 5.58825C67.0844 5.41246 67.5532 5.41302 67.93 5.58825C67.9793 5.61118 68.0269 5.63728 68.0726 5.66622C68.3261 5.82661 68.5187 6.0791 68.5796 6.4241C68.952 8.53518 69.3535 10.423 69.8068 12.117C69.8459 12.263 69.8824 12.4084 69.9223 12.5516C69.9657 12.7071 70.0133 12.8599 70.0577 13.0121C70.1177 13.2178 70.1748 13.4216 70.2367 13.6213C70.3175 13.8819 70.4011 14.137 70.4855 14.3875C70.5117 14.4652 70.5371 14.5427 70.5636 14.6193C70.6439 14.8515 70.7276 15.0787 70.8113 15.3024C70.9007 15.5412 70.9905 15.7758 71.084 16.0051C71.1808 16.2425 71.2812 16.4742 71.3828 16.7017C71.4123 16.7678 71.4413 16.8339 71.4713 16.8992C71.4949 16.9508 71.5192 17.002 71.5431 17.0531C71.6495 17.2804 71.7581 17.503 71.8699 17.7205C71.9177 17.8134 71.9669 17.9049 72.0157 17.996C72.0367 18.0352 72.057 18.0746 72.0781 18.1135C72.1162 18.1834 72.155 18.2525 72.1937 18.3214C72.2313 18.3884 72.2689 18.455 72.3071 18.521C72.3489 18.5931 72.3916 18.6642 72.4341 18.7352C72.4643 18.7856 72.4941 18.8361 72.5247 18.8859C72.562 18.9468 72.6002 19.0068 72.6382 19.0668C72.6823 19.1366 72.7265 19.206 72.7714 19.2747C72.8027 19.3226 72.8345 19.3699 72.8661 19.4172C72.9125 19.4865 72.9584 19.5559 73.0056 19.624C73.0387 19.6717 73.0731 19.7183 73.1066 19.7654C73.1571 19.8365 73.2071 19.9077 73.2586 19.9775C73.299 20.0324 73.3403 20.0866 73.3814 20.1407C73.4188 20.1901 73.4559 20.2396 73.4938 20.2883C73.5454 20.3546 73.5984 20.4197 73.651 20.4848C73.6894 20.5325 73.7276 20.5802 73.7665 20.6273C73.8083 20.6777 73.8511 20.7272 73.8935 20.777C73.9438 20.836 73.9943 20.8946 74.0455 20.9527C74.0848 20.9973 74.1243 21.0417 74.1642 21.0857C74.2176 21.1447 74.2712 21.2034 74.3255 21.2614C74.3654 21.304 74.4058 21.3462 74.4463 21.3883C74.4979 21.442 74.5499 21.4954 74.6024 21.5484C74.666 21.6124 74.7301 21.6758 74.795 21.7386C74.8219 21.7647 74.849 21.7907 74.8762 21.8166C74.945 21.8822 75.0151 21.9467 75.0854 22.011C75.1234 22.0458 75.1614 22.0806 75.1999 22.1149C75.2616 22.1701 75.3234 22.2251 75.3862 22.2792C75.4249 22.3126 75.4637 22.346 75.5028 22.379C75.5754 22.4402 75.6494 22.4999 75.7235 22.5599C75.7591 22.5887 75.7947 22.6176 75.8307 22.6462C75.8937 22.6962 75.9572 22.7457 76.0212 22.7948C76.0737 22.8351 76.1262 22.8757 76.1794 22.9154C76.2447 22.9641 76.3108 23.0121 76.3772 23.0599C76.4203 23.091 76.4637 23.1218 76.5073 23.1525C76.5778 23.2021 76.6489 23.2514 76.7207 23.3001C76.7698 23.3334 76.8188 23.367 76.8685 23.3999C76.9348 23.4438 77.0021 23.4867 77.0694 23.5299C77.1298 23.5685 77.1904 23.6072 77.2516 23.6452C77.3099 23.6815 77.3684 23.7176 77.4275 23.7534C77.4873 23.7896 77.548 23.8248 77.6086 23.8604C77.6823 23.9038 77.7565 23.9468 77.8314 23.9894C77.8879 24.0215 77.9448 24.0533 78.0021 24.085C78.0658 24.1203 78.13 24.1552 78.1947 24.19C78.2637 24.2271 78.3328 24.2647 78.4028 24.3012C78.4738 24.3383 78.5453 24.375 78.6173 24.4114C78.6759 24.4411 78.7349 24.4705 78.7943 24.4998C78.8728 24.5385 78.9518 24.5771 79.0316 24.6152C79.0963 24.6461 79.1617 24.6762 79.2273 24.7067C79.3024 24.7416 79.378 24.7763 79.4542 24.8107C79.507 24.8344 79.5601 24.8578 79.6135 24.8813C79.7166 24.9268 79.8206 24.972 79.9258 25.0165C79.9734 25.0367 80.0213 25.0568 80.0694 25.0768C80.1558 25.1127 80.2429 25.1486 80.3307 25.1839C80.4157 25.2181 80.5014 25.2521 80.5878 25.2858C80.6491 25.3097 80.711 25.3328 80.7731 25.3564C80.8544 25.3874 80.9362 25.4185 81.0187 25.449C81.1048 25.4808 81.1916 25.5122 81.279 25.5436C81.3576 25.5718 81.4366 25.6 81.5163 25.6278C81.5853 25.6519 81.6547 25.6757 81.7245 25.6995C81.8168 25.731 81.9098 25.7621 82.0034 25.7931C82.101 25.8253 82.199 25.8581 82.298 25.8898C82.3315 25.9005 82.3654 25.9103 82.399 25.921C82.6135 25.9889 82.8322 26.0529 83.0537 26.1185C83.2205 26.1679 83.3888 26.218 83.5596 26.2661C83.7418 26.3174 83.9266 26.3669 84.1134 26.4169C84.2915 26.4644 84.4713 26.5129 84.6537 26.5593C84.8556 26.6106 85.0605 26.66 85.2678 26.71C85.4447 26.7527 85.623 26.7972 85.8039 26.8389C86.0266 26.8903 86.2527 26.9396 86.4816 26.9897C86.6646 27.0297 86.8494 27.07 87.0364 27.1092C87.2411 27.1522 87.4483 27.1939 87.6578 27.2361C87.88 27.2807 88.1046 27.3264 88.3323 27.3702C88.5535 27.4127 88.7773 27.4542 89.0037 27.496C89.1449 27.522 89.2872 27.5503 89.4305 27.576L89.8864 27.6571L90.0041 27.6831C91.064 27.9786 91.1349 29.5942 90.2164 30.0659C90.1179 30.1165 90.0077 30.1538 89.8864 30.175C89.7333 30.2019 89.5813 30.229 89.4305 30.2561C89.2873 30.2819 89.1449 30.3091 89.0037 30.3351C88.7723 30.3778 88.5437 30.4206 88.3178 30.4641C88.1313 30.4999 87.9468 30.5367 87.764 30.5732C87.4953 30.6268 87.2305 30.6804 86.9697 30.7354C86.8297 30.7649 86.6911 30.7959 86.5534 30.8258C86.2959 30.8819 86.0422 30.9376 85.7924 30.9953C85.6436 31.0297 85.4962 31.0653 85.3501 31.1003C85.0945 31.1615 84.8428 31.2231 84.5954 31.2864C84.4802 31.3158 84.3663 31.3469 84.2529 31.3768C84.004 31.4425 83.7587 31.5074 83.518 31.5754C83.3638 31.619 83.2119 31.6649 83.061 31.7095C82.8574 31.7697 82.656 31.8282 82.4583 31.8904C82.3745 31.9168 82.2913 31.9437 82.2085 31.9705C82.1409 31.9923 82.0735 32.0138 82.0066 32.0359C81.9353 32.0595 81.8647 32.0838 81.7942 32.1077C81.6741 32.1483 81.555 32.1888 81.4372 32.2304C81.3951 32.2452 81.3531 32.2601 81.3112 32.2751C81.202 32.3141 81.0938 32.3537 80.9865 32.3936C80.9388 32.4113 80.8912 32.4287 80.8438 32.4466C80.736 32.4873 80.6292 32.5287 80.5232 32.5703C80.4664 32.5926 80.4099 32.6153 80.3536 32.6379C80.258 32.6762 80.1634 32.7153 80.0694 32.7543C80.0157 32.7766 79.9623 32.7993 79.9091 32.8219C79.8238 32.8581 79.7391 32.8942 79.6551 32.9311C79.593 32.9583 79.5312 32.9856 79.4698 33.0132C79.3754 33.0556 79.2815 33.0978 79.1888 33.1411C79.1448 33.1616 79.1012 33.1827 79.0576 33.2034C78.9621 33.2488 78.8672 33.2943 78.7734 33.3407C78.7368 33.3588 78.7005 33.3775 78.6641 33.3958C78.5571 33.4495 78.4513 33.5039 78.3466 33.559C78.3209 33.5725 78.2952 33.5859 78.2696 33.5995C78.0411 33.7211 77.818 33.8456 77.6003 33.9738C77.5488 34.0041 77.4982 34.0356 77.4473 34.0663C77.3718 34.1118 77.2966 34.1572 77.2224 34.2035C77.1787 34.2309 77.1356 34.2591 77.0923 34.2867C77.023 34.331 76.9544 34.3758 76.8862 34.4208C76.8245 34.4616 76.7628 34.5021 76.702 34.5435C76.6476 34.5805 76.5932 34.6172 76.5396 34.6547C76.4702 34.7033 76.4017 34.7528 76.3335 34.8024C76.2842 34.8381 76.2354 34.8742 76.1867 34.9105C76.131 34.9519 76.0761 34.9942 76.0212 35.0363C75.9572 35.0854 75.8937 35.1349 75.8307 35.1849C75.7947 35.2135 75.7591 35.2424 75.7235 35.2712C75.6466 35.3335 75.5698 35.3957 75.4945 35.4594C75.4689 35.481 75.4439 35.5031 75.4185 35.5249C75.3372 35.5946 75.2564 35.6646 75.177 35.7359C75.1542 35.7564 75.132 35.7777 75.1093 35.7983C75.0309 35.8697 74.9529 35.9415 74.8762 36.0145C74.849 36.0404 74.8219 36.0664 74.795 36.0925C74.7286 36.1568 74.6623 36.2213 74.5972 36.2869C74.5575 36.327 74.5188 36.368 74.4796 36.4085C74.4194 36.4708 74.3596 36.5333 74.3005 36.5967C74.2678 36.6319 74.2351 36.6672 74.2027 36.7028C74.1496 36.7609 74.0966 36.8193 74.0445 36.8785C73.9889 36.9415 73.9345 37.0056 73.88 37.0697C73.8432 37.113 73.806 37.1559 73.7697 37.1997C73.7296 37.248 73.6905 37.2973 73.651 37.3463C73.5984 37.4114 73.5454 37.4765 73.4938 37.5428C73.4559 37.5915 73.4188 37.641 73.3814 37.6904C73.3396 37.7455 73.2977 37.8008 73.2565 37.8567C73.2144 37.9138 73.1729 37.9714 73.1316 38.0293C73.0848 38.0947 73.038 38.1603 72.9921 38.2268C72.9556 38.2796 72.9208 38.3335 72.8849 38.3869C72.847 38.4432 72.8087 38.4993 72.7714 38.5564C72.7205 38.6343 72.6704 38.713 72.6205 38.7924C72.5928 38.8363 72.5645 38.88 72.5372 38.9244C72.5059 38.9753 72.4755 39.0268 72.4445 39.0783C72.3194 39.2865 72.197 39.4994 72.0781 39.7176C72.0483 39.7723 72.0191 39.8276 71.9896 39.8829C71.9534 39.9511 71.9171 40.0196 71.8814 40.0888C71.7656 40.3132 71.6531 40.543 71.5431 40.778C71.5192 40.8291 71.4949 40.8803 71.4713 40.9319C71.4413 40.9972 71.4123 41.0633 71.3828 41.1294C71.1553 41.639 70.9389 42.1725 70.7343 42.7325C70.645 42.9769 70.5584 43.2266 70.473 43.481C70.3918 43.7232 70.3115 43.9697 70.2336 44.2212C70.1806 44.3924 70.1311 44.5665 70.0795 44.7421C70.0275 44.9193 69.973 45.0978 69.9223 45.2795C69.8764 45.4444 69.834 45.612 69.7891 45.7806C69.343 47.4578 68.9472 49.3242 68.5796 51.4081C68.3521 52.6975 66.288 52.6975 66.0605 51.4081C64.0264 39.8777 61.2068 34.9865 53.0072 32.1617C50.7115 31.3709 47.9936 30.7423 44.7536 30.175C44.3901 30.1113 44.1287 29.9021 43.9698 29.6292C43.5988 28.9927 43.7845 28.0093 44.5267 27.7195C44.5972 27.6919 44.673 27.6712 44.7536 27.6571L45.4406 27.5344C45.5588 27.5129 45.6757 27.4886 45.7924 27.4669C45.9887 27.4303 46.1831 27.3938 46.3754 27.3567C46.6276 27.308 46.8763 27.2588 47.1217 27.209C47.3023 27.1724 47.4809 27.1351 47.6578 27.0978C47.8782 27.0513 48.0956 27.004 48.3105 26.9564C48.5152 26.9111 48.7175 26.8656 48.9173 26.8192C49.1098 26.7745 49.2998 26.7288 49.4878 26.683C49.671 26.6384 49.8521 26.5936 50.0311 26.5478C50.2485 26.4923 50.4622 26.4345 50.6734 26.3773C50.8248 26.3363 50.9748 26.2956 51.1231 26.2536C51.3224 26.1973 51.5185 26.1392 51.7122 26.0811C51.9169 26.0197 52.1195 25.9605 52.3181 25.897C52.3742 25.8791 52.43 25.8611 52.4857 25.843C52.5348 25.827 52.5836 25.8103 52.6324 25.7941C52.7454 25.7568 52.8576 25.7199 52.9686 25.6818C53.0143 25.6662 53.0597 25.6498 53.105 25.634C53.2258 25.5919 53.3457 25.5502 53.4641 25.5072C53.5042 25.4927 53.5441 25.4782 53.5838 25.4635C53.7073 25.4181 53.8293 25.3718 53.9502 25.3253C53.9805 25.3136 54.0107 25.3016 54.0408 25.2899C54.1479 25.2483 54.2542 25.2067 54.3593 25.1641C54.4578 25.1243 54.5551 25.0831 54.6518 25.0425C54.697 25.0235 54.7424 25.0055 54.7872 24.9863C54.8868 24.9438 54.985 24.8998 55.0828 24.8564C55.1358 24.8329 55.1886 24.8095 55.241 24.7857C55.3 24.7589 55.3586 24.7317 55.4169 24.7046C55.5116 24.6606 55.6061 24.6175 55.699 24.5726C55.7448 24.5505 55.79 24.5274 55.8354 24.505C55.9197 24.4635 56.0033 24.4215 56.0863 24.3792C56.1485 24.3474 56.21 24.3148 56.2715 24.2825C56.3502 24.2413 56.4283 24.1998 56.5057 24.1578C56.5386 24.14 56.571 24.1217 56.6036 24.1037C56.7105 24.0449 56.8167 23.9863 56.9211 23.9259C56.9382 23.916 56.955 23.9057 56.9721 23.8958C57.0763 23.8351 57.1795 23.774 57.2812 23.7118C57.3228 23.6864 57.364 23.6605 57.4051 23.6349C57.4719 23.5932 57.5382 23.5514 57.6039 23.5091C57.6893 23.4541 57.7733 23.3979 57.8569 23.3417C57.8829 23.3242 57.9091 23.3073 57.9349 23.2897C58.0157 23.2347 58.0952 23.1785 58.1744 23.1223C58.2197 23.0902 58.2649 23.0582 58.3097 23.0256C58.3698 22.982 58.4295 22.938 58.4887 22.8936C58.5524 22.8459 58.6155 22.7977 58.6782 22.7491C58.7165 22.7194 58.7547 22.6897 58.7927 22.6597C58.8617 22.6051 58.93 22.5501 58.9977 22.4944C59.0432 22.457 59.0881 22.419 59.1331 22.3811C59.1975 22.3268 59.2613 22.2721 59.3246 22.2168C59.3601 22.1858 59.3956 22.1547 59.4308 22.1233C59.4935 22.0673 59.5555 22.0108 59.6171 21.9538C59.6744 21.9008 59.7315 21.8476 59.7878 21.7937C59.8225 21.7605 59.8565 21.7265 59.8909 21.6929C59.947 21.638 60.0023 21.5823 60.0574 21.5265C60.1157 21.4676 60.174 21.4088 60.2312 21.3487C60.2582 21.3205 60.2847 21.292 60.3114 21.2635C60.3805 21.1898 60.4489 21.1153 60.5165 21.04C60.5437 21.0096 60.5707 20.9791 60.5977 20.9485C60.66 20.8778 60.7219 20.8065 60.7829 20.7343C60.8127 20.6992 60.842 20.6638 60.8714 20.6283C60.9258 20.5627 60.9794 20.4965 61.0328 20.4297C61.0791 20.3718 61.1257 20.3139 61.1712 20.2551C61.205 20.2115 61.2378 20.1671 61.2711 20.123C61.3221 20.0556 61.3731 19.9879 61.4231 19.9193C61.4562 19.874 61.4883 19.8279 61.521 19.7821C61.5703 19.7127 61.6203 19.6436 61.6688 19.5731C61.7051 19.5203 61.7402 19.4665 61.776 19.413C61.8138 19.3565 61.8512 19.2997 61.8884 19.2425C61.9322 19.1751 61.9755 19.1072 62.0185 19.0387C62.0505 18.988 62.0828 18.9373 62.1143 18.8859C62.1594 18.8125 62.2033 18.7381 62.2475 18.6634C62.2775 18.6129 62.3085 18.5628 62.3381 18.5117C62.3916 18.4191 62.444 18.3254 62.4963 18.231C62.5124 18.202 62.5282 18.1728 62.5442 18.1436C62.5839 18.0711 62.6228 17.9979 62.6618 17.9243C62.7068 17.8393 62.752 17.754 62.7961 17.6675C62.814 17.6323 62.8314 17.5968 62.8492 17.5614C62.8924 17.4754 62.9359 17.389 62.9783 17.3015C63.0125 17.2308 63.0455 17.1591 63.0792 17.0874C63.1149 17.0115 63.1514 16.9356 63.1865 16.8587C63.217 16.7916 63.2469 16.7239 63.277 16.6559C63.3109 16.5797 63.3457 16.5035 63.379 16.4262C63.4036 16.3692 63.4266 16.3112 63.4509 16.2536C63.5509 16.016 63.6501 15.7739 63.7454 15.5259C63.8428 15.2727 63.9369 15.0137 64.0296 14.7493C64.046 14.7027 64.0623 14.6559 64.0786 14.609C64.11 14.5179 64.1402 14.4259 64.1712 14.3335C64.2543 14.0853 64.3362 13.8325 64.4158 13.5745C64.443 13.4866 64.4682 13.3975 64.4949 13.3084C64.7768 12.3701 65.0406 11.3683 65.286 10.2956C65.407 9.76688 65.5216 9.22061 65.6358 8.65718C65.7808 7.94161 65.9239 7.19812 66.0605 6.4241C66.1213 6.07947 66.3133 5.82664 66.5664 5.66622C66.6118 5.63742 66.659 5.61111 66.7079 5.58825ZM67.32 22.4559C66.4982 23.7533 65.5492 24.9586 64.4418 26.0623C63.3411 27.1594 62.1401 28.1006 60.8475 28.9161C62.1401 29.7316 63.3411 30.6727 64.4418 31.7698C65.5492 32.8736 66.4982 34.0788 67.32 35.3762C68.1418 34.0788 69.0908 32.8736 70.1982 31.7698C71.299 30.6727 72.5009 29.7316 73.7936 28.9161C72.5008 28.1006 71.299 27.1595 70.1982 26.0623C69.0908 24.9586 68.1418 23.7533 67.32 22.4559Z" fill="#111111"/>
<path d="M130.182 111.859C124.777 111.859 120.003 110.824 115.86 108.755C111.806 106.596 108.473 103.717 105.861 100.119L114.779 91.8873C116.49 94.4062 118.607 96.3404 121.129 97.6899C123.741 99.0393 126.624 99.714 129.776 99.714C132.929 99.714 135.722 99.0393 138.154 97.6899C140.586 96.3404 142.477 94.3613 143.829 91.7523C145.27 89.0535 145.99 85.7698 145.99 81.9014V16.8585H158.691V81.2267C158.691 87.4341 157.43 92.8319 154.908 97.42C152.476 102.008 149.098 105.562 144.774 108.081C140.541 110.6 135.677 111.859 130.182 111.859Z" fill="#111111"/>
<path d="M177.758 110.51V46.4112H189.919V110.51H177.758Z" fill="#111111"/>
<path fill-rule="evenodd" clip-rule="evenodd" d="M219.189 107.541C223.963 110.42 229.278 111.859 235.133 111.859C240.087 111.859 244.456 110.869 248.239 108.89C251.595 107.097 254.342 104.731 256.481 101.79V110.51H268.777V46.4112H256.481V55.1781C254.27 52.2266 251.477 49.889 248.104 48.1655C244.321 46.0963 239.997 45.0618 235.133 45.0618C229.188 45.0618 223.828 46.5461 219.054 49.5149C214.37 52.4837 210.632 56.487 207.84 61.5249C205.137 66.5628 203.786 72.2305 203.786 78.5278C203.786 84.8252 205.137 90.4929 207.84 95.5308C210.632 100.569 214.415 104.572 219.189 107.541ZM256.481 55.1781V62.0647L258.778 77.5832L256.481 93.2367V101.79C256.811 101.336 257.126 100.869 257.427 100.389C259.769 96.7903 261.075 92.697 261.345 88.1089V68.8119C261.075 64.1338 259.769 60.0405 257.427 56.532C257.125 56.0672 256.809 55.6159 256.481 55.1781ZM251.752 94.3163C248.059 98.3646 243.195 100.389 237.16 100.389C233.106 100.389 229.503 99.4441 226.35 97.5549C223.198 95.6657 220.721 93.1018 218.919 89.8631C217.208 86.5345 216.352 82.7111 216.352 78.3929C216.352 74.1647 217.208 70.4312 218.919 67.1926C220.721 63.8639 223.153 61.255 226.215 59.3658C229.368 57.4766 232.971 56.532 237.025 56.532C241.078 56.532 244.636 57.4766 247.699 59.3658C250.761 61.1651 253.103 63.729 254.725 67.0576C256.436 70.2963 257.292 74.1197 257.292 78.5278C257.292 84.9152 255.445 90.178 251.752 94.3163Z" fill="#111111"/>
<path d="M256.481 55.1781C256.809 55.6159 257.125 56.0672 257.427 56.532C259.769 60.0405 261.075 64.1338 261.345 68.8119V88.1089C261.075 92.697 259.769 96.7903 257.427 100.389C257.126 100.869 256.811 101.336 256.481 101.79V93.2367L258.778 77.5832L256.481 62.0647V55.1781Z" fill="#111111"/>
<path d="M184.953 13.0367C184.744 12.0752 183.107 12.0752 182.897 13.0367C181.591 19.0341 179.498 21.1242 173.493 22.429C172.53 22.6382 172.53 24.2732 173.493 24.4824C179.498 25.7873 181.591 27.8774 182.897 33.8748C183.107 34.8363 184.744 34.8363 184.953 33.8748C186.26 27.8774 188.353 25.7873 194.358 24.4824C195.32 24.2732 195.32 22.6382 194.358 22.429C188.353 21.1242 186.26 19.0341 184.953 13.0367Z" fill="#111111"/>
</svg>
