<?xml version="1.0" encoding="UTF-8"?>
<svg width="184px" height="25px" viewBox="0 0 184 25" version="1.1"
    xmlns="http://www.w3.org/2000/svg"
    xmlns:xlink="http://www.w3.org/1999/xlink">
    <title>Group 6</title>
    <defs>
        <polygon id="path-1" points="0 0 27 0 27 25 0 25"></polygon>
        <polygon id="path-3" points="0 0 20 0 20 25 0 25"></polygon>
    </defs>
    <g id="For-Approval:-Other-pages-(Services,-insights,-more)" stroke="none" stroke-width="1" fill="none" fill-rule="evenodd">
        <g id="Why-WC" transform="translate(-90.000000, -40.000000)">
            <g id="Group-6" transform="translate(90.000000, 40.000000)">
                <g id="Group-9">
                    <g id="Group-3">
                        <mask id="mask-2" fill="white">
                            <use xlink:href="#path-1"></use>
                        </mask>
                        <g id="Clip-2"></g>
                        <path d="M1.87787428,0 L14.910742,0 C15.6399601,0 16.3027087,0.411473213 16.6107377,1.05522969 L26.82206,22.3993755 C27.401803,23.6116729 26.4942524,25 25.1220644,25 L12.0891967,25 C11.3606271,25 10.6975542,24.5885268 10.3895252,23.9447703 L0.177878623,2.60062448 C-0.401864318,1.38895912 0.505686292,0 1.87787428,0" id="Fill-1" fill="#111010" mask="url(#mask-2)"></path>
                    </g>
                    <path d="M45.8298383,22.3993755 L36.0648821,1.05522969 C35.7700078,0.411473213 35.1362298,0 34.4391981,0 L29.6111368,0 C28.9144151,0 28.280327,0.411473213 27.9857629,1.05522969 L24.1679016,9.39972948 C23.9440328,9.88957854 23.9440328,10.4552752 24.1679016,10.9448082 L30.1156166,23.9447703 C30.4101808,24.5885268 31.0442688,25 31.7409906,25 L44.2041543,25 C45.5163601,25 46.384239,23.6110409 45.8298383,22.3993755" id="Fill-4" fill="#111010"></path>
                    <g id="Group-8" transform="translate(45.000000, 0.000000)">
                        <mask id="mask-4" fill="white">
                            <use xlink:href="#path-3"></use>
                        </mask>
                        <g id="Clip-7"></g>
                        <path d="M18.1622162,0 L5.44417472,0 C4.73082964,0 4.08221873,0.412375052 3.78076063,1.05754247 L0.17183112,8.78244841 C-0.05727704,9.27305436 -0.05727704,9.83999088 0.17183112,10.3309136 L6.53101052,23.9421408 C6.83246862,24.5873082 7.48107954,25 8.19442461,25 C8.90776969,25 9.55669792,24.5873082 9.85815603,23.9421408 L19.8259476,2.60632435 C20.3933235,1.39200334 19.5048154,0 18.1622162,0" id="Fill-6" fill="#111010" mask="url(#mask-4)"></path>
                    </g>
                </g>
                <g id="WHITECLOAK" transform="translate(74.000000, 5.000000)" fill="#000000" fill-rule="nonzero">
                    <path d="M2.39168606,14.7113402 L6.75420356,14.7113402 L7.14426394,11.2164948 C7.33929414,9.50515464 7.49326534,7.92783505 7.60617756,6.19587629 L7.82173725,6.19587629 C7.92438472,7.92783505 8.06809118,9.5257732 8.27338612,11.2164948 L8.683976,14.7113402 L13.1183467,14.7113402 L15.4073853,0.278350515 L11.7941944,0.278350515 L11.116721,6.48453608 C10.9627498,7.89690722 10.8806319,8.98969072 10.7985139,10.556701 L10.5726895,10.556701 C10.5008362,8.98969072 10.3981888,7.81443299 10.2339528,6.48453608 L9.46409678,0.278350515 L6.086995,0.278350515 L5.37872745,6.48453608 C5.23502099,7.81443299 5.12210878,8.98969072 5.02972605,10.556701 L4.82443111,10.556701 C4.76284263,8.96907216 4.68072465,7.89690722 4.50622395,6.48453608 L3.74663267,0.278350515 L0,0.278350515 L2.39168606,14.7113402 Z M23.1541778,0.278350515 L23.1541778,5.72164948 L20.4750788,5.72164948 L20.4750788,0.278350515 L16.7489757,0.278350515 L16.7489757,14.7113402 L20.4750788,14.7113402 L20.4750788,8.7628866 L23.1541778,8.7628866 L23.1541778,14.7113402 L26.880281,14.7113402 L26.880281,0.278350515 L23.1541778,0.278350515 Z M28.7864324,0.278350515 L28.7864324,14.7113402 L32.5125356,14.7113402 L32.5125356,0.278350515 L28.7864324,0.278350515 Z M36.8103731,14.7113402 L40.5364763,14.7113402 L40.5364763,3.34020619 L43.4619292,3.34020619 L43.4619292,0.278350515 L33.8849202,0.278350515 L33.8849202,3.34020619 L36.8103731,3.34020619 L36.8103731,14.7113402 Z M48.560417,11.6494845 L48.560417,8.70103093 L52.6560511,8.70103093 L52.6560511,6.05154639 L48.560417,6.05154639 L48.560417,3.34020619 L53.0255819,3.34020619 L53.0255819,0.278350515 L44.8343138,0.278350515 L44.8343138,14.7113402 L53.2103474,14.7113402 L53.2103474,11.6494845 L48.560417,11.6494845 Z M59.5919285,15 C62.8355886,15 64.7037726,13.3402062 64.7756258,9.26804124 L61.1624348,8.5257732 C61.1316406,11.2164948 60.587609,12.0412371 59.6637818,12.0412371 C58.6988956,12.0412371 58.2267172,11.2680412 58.2267172,9.67010309 L58.2267172,5.29896907 C58.2267172,3.71134021 58.6988956,2.93814433 59.6637818,2.93814433 C60.6799917,2.93814433 61.1624348,3.70103093 61.1624348,6.19587629 L64.7140373,5.69072165 C64.6832431,1.67010309 62.9382361,0 59.5919285,0 C56.1019146,0 54.459555,2.01030928 54.459555,6.18556701 L54.459555,8.80412371 C54.459555,12.9896907 56.0608556,15 59.5919285,15 Z M66.3943643,14.7113402 L74.2161016,14.7113402 L74.2161016,11.6494845 L70.1204675,11.6494845 L70.1204675,0.278350515 L66.3943643,0.278350515 L66.3943643,14.7113402 Z M80.8029777,15 C84.3956391,15 86.1406461,13.1649485 86.1406461,8.88659794 L86.1406461,6.26804124 C86.1406461,1.88659794 84.3956391,0 80.8029777,0 C77.2000515,0 75.4653092,1.88659794 75.4653092,6.26804124 L75.4653092,8.88659794 C75.4653092,13.1649485 77.2000515,15 80.8029777,15 Z M80.8029777,12.0412371 C79.7457087,12.0412371 79.2324714,11.2886598 79.2324714,9.74226804 L79.2324714,5.40206186 C79.2324714,3.75257732 79.7457087,2.95876289 80.8029777,2.95876289 C81.8602466,2.95876289 82.373484,3.75257732 82.373484,5.40206186 L82.373484,9.74226804 C82.373484,11.2886598 81.8602466,12.0412371 80.8029777,12.0412371 Z M86.8150279,14.7113402 L90.3974247,14.7113402 L90.6848376,12.9793814 L94.1337926,12.9793814 L94.4212055,14.7113402 L98.3628684,14.7113402 L94.9857666,0.278350515 L90.1202765,0.278350515 L86.8150279,14.7113402 Z M91.2391339,10.3092784 L91.885813,7.11340206 C92.0705784,5.86597938 92.2245496,4.80412371 92.3066676,3.63917526 L92.5119625,3.63917526 C92.61461,4.80412371 92.778846,5.86597938 92.9636114,7.12371134 L93.589761,10.3092784 L91.2391339,10.3092784 Z M99.6736645,14.7113402 L103.399768,14.7113402 L103.399768,10.6185567 L104.323595,9 L105.965954,14.7113402 L110,14.7113402 L106.889782,5.92783505 L109.856294,0.278350515 L106.048072,0.278350515 L103.245796,6.27835052 L103.040502,6.20618557 C103.31765,4.67010309 103.399768,3.68041237 103.399768,2.37113402 L103.399768,0.278350515 L99.6736645,0.278350515 L99.6736645,14.7113402 Z" id="Combined-Shape"></path>
                </g>
            </g>
        </g>
    </g>
</svg>