<svg width="15" height="15" viewBox="0 0 15 15" fill="none" xmlns="http://www.w3.org/2000/svg">
<path d="M5.39335 5.33332C5.55009 4.88777 5.85946 4.51206 6.26666 4.27275C6.67386 4.03343 7.15262 3.94595 7.61814 4.0258C8.08366 4.10565 8.5059 4.34767 8.81007 4.70901C9.11425 5.07034 9.28072 5.52767 9.28002 5.99999C9.28002 7.33332 7.28002 7.99999 7.28002 7.99999M7.33335 10.6667H7.34002M14 7.33332C14 11.0152 11.0153 14 7.33335 14C3.65146 14 0.666687 11.0152 0.666687 7.33332C0.666687 3.65142 3.65146 0.666656 7.33335 0.666656C11.0153 0.666656 14 3.65142 14 7.33332Z" stroke="#717680" stroke-width="1.33333" stroke-linecap="round" stroke-linejoin="round"/>
</svg>
