<svg width="19" height="19" viewBox="0 0 19 19" fill="none" xmlns="http://www.w3.org/2000/svg">
<path d="M15 6.66667L16.0417 4.375L18.3333 3.33333L16.0417 2.29167L15 0L13.9583 2.29167L11.6667 3.33333L13.9583 4.375L15 6.66667Z" fill="url(#paint0_linear_40000042_4642)"/>
<path d="M15 11.6667L13.9583 13.9583L11.6667 15L13.9583 16.0417L15 18.3333L16.0417 16.0417L18.3333 15L16.0417 13.9583L15 11.6667Z" fill="url(#paint1_linear_40000042_4642)"/>
<path d="M8.75 7.08333L6.66667 2.5L4.58333 7.08333L0 9.16667L4.58333 11.25L6.66667 15.8333L8.75 11.25L13.3333 9.16667L8.75 7.08333ZM7.49167 9.99167L6.66667 11.8083L5.84167 9.99167L4.025 9.16667L5.84167 8.34167L6.66667 6.525L7.49167 8.34167L9.30833 9.16667L7.49167 9.99167Z" fill="url(#paint2_linear_40000042_4642)"/>
<defs>
<linearGradient id="paint0_linear_40000042_4642" x1="-0.000285505" y1="18.3332" x2="18.3331" y2="-0.000223217" gradientUnits="userSpaceOnUse">
<stop stop-color="#FCCEC0"/>
<stop offset="0.33" stop-color="#EBACC9"/>
<stop offset="0.66" stop-color="#CEB6DA"/>
<stop offset="1" stop-color="#9FCAED"/>
</linearGradient>
<linearGradient id="paint1_linear_40000042_4642" x1="-0.000285505" y1="18.3332" x2="18.3331" y2="-0.000223217" gradientUnits="userSpaceOnUse">
<stop stop-color="#FCCEC0"/>
<stop offset="0.33" stop-color="#EBACC9"/>
<stop offset="0.66" stop-color="#CEB6DA"/>
<stop offset="1" stop-color="#9FCAED"/>
</linearGradient>
<linearGradient id="paint2_linear_40000042_4642" x1="-0.000285505" y1="18.3332" x2="18.3331" y2="-0.000223217" gradientUnits="userSpaceOnUse">
<stop stop-color="#FCCEC0"/>
<stop offset="0.33" stop-color="#EBACC9"/>
<stop offset="0.66" stop-color="#CEB6DA"/>
<stop offset="1" stop-color="#9FCAED"/>
</linearGradient>
</defs>
</svg>
